<?xml version="1.0" encoding="UTF-8"?>
<svg version="1.1" xmlns="http://www.w3.org/2000/svg" width="424" height="136">
<path d="M0 0 C0.061875 0.61875 0.12375 1.2375 0.1875 1.875 C0.828919 4.27761141 0.828919 4.27761141 3.5625 5.25 C4.366875 5.4975 5.17125 5.745 6 6 C6 6.66 6 7.32 6 8 C6.8971875 8.433125 6.8971875 8.433125 7.8125 8.875 C10 10 10 10 13 12 C13.49628906 11.52949219 13.99257813 11.05898438 14.50390625 10.57421875 C22.3515848 3.38175435 29.36208242 0.985835 40 1 C49.5952006 2.16936501 56.38868597 7.38868597 63 14 C63.99 13.34 64.98 12.68 66 12 C66.99 12.33 67.98 12.66 69 13 C69.33 12.01 69.66 11.02 70 10 C68.62831762 7.80961577 68.62831762 7.80961577 67 6 C67.99 6 68.98 6 70 6 C70 6.66 70 7.32 70 8 C71.3303125 7.2265625 71.3303125 7.2265625 72.6875 6.4375 C76.20023331 4.9131063 77.44706507 4.85052105 81 6 C81 6.66 81 7.32 81 8 C81.99 8.33 82.98 8.66 84 9 C83.01 9.61875 82.02 10.2375 81 10.875 C80.01 11.57625 79.02 12.2775 78 13 C78 13.66 78 14.32 78 15 C75.36 14.67 72.72 14.34 70 14 C70.495 15.98 70.495 15.98 71 18 C69.02 18 67.04 18 65 18 C65.34224609 19.01707031 65.34224609 19.01707031 65.69140625 20.0546875 C68.56703296 29.36501253 68.64620711 36.98878772 64.28515625 45.8359375 C59.75716025 53.46058729 53.62951129 58.85879138 45.11328125 61.609375 C35.15172393 63.45069798 26.20361757 62.11754194 17.78125 56.52734375 C11.16148461 51.30316323 7.30684882 44.31631065 6 36 C5.26921929 28.29869557 6.68732644 21.46901034 11 15 C8.69 13.02 6.38 11.04 4 9 C3.67 9.99 3.34 10.98 3 12 C2.34 11.01 1.68 10.02 1 9 C1.309375 9.928125 1.61875 10.85625 1.9375 11.8125 C2.625 13.875 3.3125 15.9375 4 18 C0 18 0 18 -1.484375 16.6875 C-2.65625 15.125 -3.828125 13.5625 -5 12 C-4.01 11.67 -3.02 11.34 -2 11 C-1.93941406 10.37351562 -1.87882812 9.74703125 -1.81640625 9.1015625 C-1.73261719 8.28429688 -1.64882813 7.46703125 -1.5625 6.625 C-1.48128906 5.81289063 -1.40007813 5.00078125 -1.31640625 4.1640625 C-1 2 -1 2 0 0 Z M26 6 C31.94 5.67 37.88 5.34 44 5 C44 4.67 44 4.34 44 4 C41.5622037 3.94602665 39.12560315 3.90634384 36.6875 3.875 C35.99720703 3.85824219 35.30691406 3.84148438 34.59570312 3.82421875 C30.82864604 3.78782206 29.21568296 3.85621136 26 6 Z M44 5 C48 6 48 6 48 6 Z M23 6 C23 6.66 23 7.32 23 8 C23.99 7.67 24.98 7.34 26 7 C25.01 6.67 24.02 6.34 23 6 Z M48 6 C48.33 6.66 48.66 7.32 49 8 C49.66 7.67 50.32 7.34 51 7 C50.01 6.67 49.02 6.34 48 6 Z M40 8 C41.3326971 10.66539421 42.6638592 10.90872973 45.375 12.0625 C46.56222656 12.57490234 46.56222656 12.57490234 47.7734375 13.09765625 C49.49169784 13.79400386 51.2411405 14.4137135 53 15 C53.33 15.99 53.66 16.98 54 18 C54.66 18 55.32 18 56 18 C56 18.99 56 19.98 56 21 C55.16227051 21.01981934 54.32454102 21.03963867 53.46142578 21.06005859 C50.35634166 21.13810612 47.25165461 21.22479635 44.14697266 21.31738281 C42.14113029 21.37454036 40.13501082 21.42168596 38.12890625 21.46875 C36.24365234 21.52675781 36.24365234 21.52675781 34.3203125 21.5859375 C33.15773926 21.6173584 31.99516602 21.6487793 30.79736328 21.68115234 C27.86343518 21.72157869 27.86343518 21.72157869 26 24 C30.29 24 34.58 24 39 24 C39 24.99 39 25.98 39 27 C37.22880197 26.85866501 35.45804713 26.71176792 33.6875 26.5625 C32.70136719 26.48128906 31.71523438 26.40007813 30.69921875 26.31640625 C28 26 28 26 25 25 C25 25.99 25 26.98 25 28 C29.62 28 34.24 28 39 28 C39 28.99 39 29.98 39 31 C34.71 31 30.42 31 26 31 C26 32.65 26 34.3 26 36 C26.66 36 27.32 36 28 36 C28.33 37.32 28.66 38.64 29 40 C29.66 40 30.32 40 31 40 C31 40.99 31 41.98 31 43 C34.60992379 42.34414811 34.60992379 42.34414811 38 41 C40.3400417 41.28241883 42.67504723 41.61250787 45 42 C45 41.34 45 40.68 45 40 C53.57142857 38.57142857 53.57142857 38.57142857 57 41 C56.938125 40.21625 56.87625 39.4325 56.8125 38.625 C56.9053125 37.325625 56.9053125 37.325625 57 36 C57.99 35.34 58.98 34.68 60 34 C60 33.34 60 32.68 60 32 C54.39 31.67 48.78 31.34 43 31 C43 30.34 43 29.68 43 29 C48.94 28.67 54.88 28.34 61 28 C59.03464283 25.58877632 59.03464283 25.58877632 55.3046875 25.8046875 C53.82799892 25.817991 52.35137642 25.84185165 50.875 25.875 C49.74384766 25.88853516 49.74384766 25.88853516 48.58984375 25.90234375 C46.72642746 25.9259313 44.86317407 25.96180281 43 26 C42.67 25.34 42.34 24.68 42 24 C47.94 24 53.88 24 60 24 C56.65186114 16.187676 54.54461757 12.23899023 46.97265625 8.71484375 C44.56183161 7.84121819 42.540807 7.68239913 40 8 Z M19 9 C19.33 9.66 19.66 10.32 20 11 C20.33 10.34 20.66 9.68 21 9 C20.34 9 19.68 9 19 9 Z M25 9 C24.67 9.66 24.34 10.32 24 11 C24.99 10.67 25.98 10.34 27 10 C26.34 9.67 25.68 9.34 25 9 Z M53 9 C54.65 10.98 56.3 12.96 58 15 C58.31583648 12.02482427 58.31583648 12.02482427 56.625 10.3125 C55.08882742 8.7905543 55.08882742 8.7905543 53 9 Z M19.375 13.375 C16.77636223 15.65718683 16.77636223 15.65718683 17 18 C17.66 18 18.32 18 19 18 C20.35712166 16.44144019 20.35712166 16.44144019 21.625 14.5 C22.07101563 13.8503125 22.51703125 13.200625 22.9765625 12.53125 C23.31429687 12.0259375 23.65203125 11.520625 24 11 C21.65718683 10.77636223 21.65718683 10.77636223 19.375 13.375 Z M-1 12 C0 14 0 14 0 14 Z M16 12 C17 14 17 14 17 14 Z M26 12 C25.67 12.66 25.34 13.32 25 14 C25.99 13.67 26.98 13.34 28 13 C27.34 12.67 26.68 12.34 26 12 Z M32 12 C31.67 12.66 31.34 13.32 31 14 C31.99 13.67 32.98 13.34 34 13 C33.34 12.67 32.68 12.34 32 12 Z M31 18 C31 18.66 31 19.32 31 20 C37.93 20 44.86 20 52 20 C51.34 18.35 50.68 16.7 50 15 C46.46485707 13.62032476 46.46485707 13.62032476 43 13 C43 13.66 43 14.32 43 15 C41.68 15 40.36 15 39 15 C39 14.34 39 13.68 39 13 C35.47085452 13 33.48911562 15.72732921 31 18 Z M30 14 C28.29115995 15.62339805 26.62553283 17.29319053 25 19 C25 19.66 25 20.32 25 21 C24.34 21 23.68 21 23 21 C22.67 21.99 22.34 22.98 22 24 C23.32 23.34 24.64 22.68 26 22 C26 21.34 26 20.68 26 20 C26.66 20 27.32 20 28 20 C29.63676257 18.0399719 29.63676257 18.0399719 31 16 C30.67 15.34 30.34 14.68 30 14 Z M14 15 C14 18 14 18 14 18 Z M59 15 C59.66 16.65 60.32 18.3 61 20 C61.33 19.01 61.66 18.02 62 17 C61.01 16.34 60.02 15.68 59 15 Z M22 16 C23 18 23 18 23 18 Z M12 18 C13 20 13 20 13 20 Z M16 18 C14.87483915 19.83284443 14.87483915 19.83284443 14 22 C14.33 22.99 14.66 23.98 15 25 C16.12516085 23.16715557 16.12516085 23.16715557 17 21 C16.67 20.01 16.34 19.02 16 18 Z M20 18 C20.33 18.66 20.66 19.32 21 20 C21.33 19.34 21.66 18.68 22 18 C21.34 18 20.68 18 20 18 Z M11 20 C9.70366379 21.06645115 9.70366379 21.06645115 9.9375 23.5625 C9.958125 24.366875 9.97875 25.17125 10 26 C10.66 25.34 11.32 24.68 12 24 C11.6814823 21.89179203 11.6814823 21.89179203 11 20 Z M19 20 C16.30378011 25.93168377 15.23150883 30.59088162 17 37 C17.66 37.66 18.32 38.32 19 39 C18.94779297 37.75283203 18.94779297 37.75283203 18.89453125 36.48046875 C18.86746094 35.39378906 18.84039062 34.30710937 18.8125 33.1875 C18.76029297 31.56908203 18.76029297 31.56908203 18.70703125 29.91796875 C19 27 19 27 20.51171875 25.11328125 C21.24841797 24.56220703 21.24841797 24.56220703 22 24 C21.34 24 20.68 24 20 24 C19.67 22.68 19.34 21.36 19 20 Z M62 20 C62.165 20.86625 62.33 21.7325 62.5 22.625 C63.39266231 28.69761822 63.07639812 34.87966132 63 41 C65.46484146 38.53515854 65.2855892 37.06173082 65.32226562 33.6875 C65.31904297 33.006875 65.31582031 32.32625 65.3125 31.625 C65.32861328 30.95210937 65.34472656 30.27921875 65.36132812 29.5859375 C65.36542237 25.42618673 64.9312065 23.01628109 62 20 Z M9 26 C8.94558344 27.89551022 8.90701965 29.7914792 8.875 31.6875 C8.85179687 32.74324219 8.82859375 33.79898438 8.8046875 34.88671875 C9.00141271 38.02251859 9.66942346 40.17645373 11 43 C12.33333333 40 12.33333333 40 11 37 C10.77820215 35.10787263 10.59385985 33.21115528 10.4375 31.3125 C10.35371094 30.31863281 10.26992188 29.32476562 10.18359375 28.30078125 C10.12300781 27.54152344 10.06242187 26.78226563 10 26 C9.67 26 9.34 26 9 26 Z M13 28 C12.94600264 29.45792884 12.90720823 30.91642712 12.875 32.375 C12.85179688 33.18710937 12.82859375 33.99921875 12.8046875 34.8359375 C12.78629949 37.21342243 12.78629949 37.21342243 15 39 C14.67 35.37 14.34 31.74 14 28 C13.67 28 13.34 28 13 28 Z M20 28 C19.11469775 33.60691423 21.36824621 37.13813211 24.265625 41.71875 C26.55254529 44.72677129 28.6741278 46.25787646 32 48 C31.21869929 45.50447516 31.21869929 45.50447516 30 43 C29.01 42.67 28.02 42.34 27 42 C26.67 41.34 26.34 40.68 26 40 C26.66 39.67 27.32 39.34 28 39 C26.68 39 25.36 39 24 39 C23.34 35.37 22.68 31.74 22 28 C21.34 28 20.68 28 20 28 Z M19 39 C20 41 20 41 20 41 Z M15 40 C16 42 16 42 16 42 Z M62 41 C61.34 42.98 60.68 44.96 60 47 C60.99 46.01 61.98 45.02 63 44 C62.67 43.01 62.34 42.02 62 41 Z M20 42 C20.66 42.66 21.32 43.32 22 44 C22 43.34 22 42.68 22 42 C21.34 42 20.68 42 20 42 Z M46 42 C47.32 42.33 48.64 42.66 50 43 C50 43.66 50 44.32 50 45 C49.01 45.495 49.01 45.495 48 46 C49.65 46 51.3 46 53 46 C53 44.68 53 43.36 53 42 C50.69 42 48.38 42 46 42 Z M12 43 C13 45 13 45 13 45 Z M35 43 C35.57344937 45.86724686 35.8614515 46.8614515 38 49 C40.21072977 49.24253813 40.21072977 49.24253813 42.625 49.125 C43.44226563 49.10695313 44.25953125 49.08890625 45.1015625 49.0703125 C45.72804688 49.04710937 46.35453125 49.02390625 47 49 C47 48.67 47 48.34 47 48 C44.36 48 41.72 48 39 48 C39 47.34 39 46.68 39 46 C41.64 46 44.28 46 47 46 C47 45.67 47 45.34 47 45 C46.30132812 44.93941406 45.60265625 44.87882812 44.8828125 44.81640625 C43.97273438 44.73261719 43.06265625 44.64882812 42.125 44.5625 C41.22007813 44.48128906 40.31515625 44.40007812 39.3828125 44.31640625 C37 44 37 44 35 43 Z M13 45 C13 45.99 13 46.98 13 48 C13.66 48 14.32 48 15 48 C14.67 47.01 14.34 46.02 14 45 C13.67 45 13.34 45 13 45 Z M59 47 C58.34 48.32 57.68 49.64 57 51 C57.99 50.34 58.98 49.68 60 49 C59.67 48.34 59.34 47.68 59 47 Z M15 48 C15.33 48.99 15.66 49.98 16 51 C16 50.01 16 49.02 16 48 C15.67 48 15.34 48 15 48 Z M17 51 C17.33 51.66 17.66 52.32 18 53 C18.66 52.67 19.32 52.34 20 52 C19.01 51.67 18.02 51.34 17 51 Z M20 53 C20 53.66 20 54.32 20 55 C20.66 55 21.32 55 22 55 C22 54.34 22 53.68 22 53 C21.34 53 20.68 53 20 53 Z M29 53 C29 53.99 29 54.98 29 56 C29.66 55.01 30.32 54.02 31 53 C30.34 53 29.68 53 29 53 Z M33 53 C33 56 33 56 33 56 Z M35 53 C35 54.65 35 56.3 35 58 C35.66 56.68 36.32 55.36 37 54 C36.34 53.67 35.68 53.34 35 53 Z M40 53 C40 56 40 56 40 56 Z M53 53 C52.01 53.495 52.01 53.495 51 54 C51.33 54.66 51.66 55.32 52 56 C52.66 55.67 53.32 55.34 54 55 C53.67 54.34 53.34 53.68 53 53 Z M43 55 C43.99 55.33 44.98 55.66 46 56 C46.33 56.66 46.66 57.32 47 58 C47 57.01 47 56.02 47 55 C45.68 55 44.36 55 43 55 Z " fill="#2B8EC9" transform="translate(23,28)"/>
<path d="M0 0 C1.32 0 2.64 0 4 0 C3.67447917 2.01822917 3.34895833 4.03645833 3.0234375 6.0546875 C3.01570313 6.69664063 3.00796875 7.33859375 3 8 C3.66 8.66 4.32 9.32 5 10 C4.82194873 13.38297413 4.21162756 14.76272061 1.9375 17.3125 C1.298125 17.869375 0.65875 18.42625 0 19 C0.5259375 19.8353125 0.5259375 19.8353125 1.0625 20.6875 C2.21845993 23.53886783 1.80967438 25.08517222 1 28 C0.01 28.33 -0.98 28.66 -2 29 C-2.33 29.66 -2.66 30.32 -3 31 C-2.36191406 30.98839844 -1.72382813 30.97679688 -1.06640625 30.96484375 C-0.24011719 30.95582031 0.58617187 30.94679688 1.4375 30.9375 C2.26121094 30.92589844 3.08492188 30.91429688 3.93359375 30.90234375 C6 31 6 31 7 32 C7.4375 35.3125 7.4375 35.3125 7 39 C3.84733442 41.92747518 1.92396017 42.93155851 -2.375 43.25 C-3.24125 43.1675 -4.1075 43.085 -5 43 C-5.33 44.32 -5.66 45.64 -6 47 C-6.66 47 -7.32 47 -8 47 C-8.77426109 49.80764728 -8.77426109 49.80764728 -9 53 C-7.6483633 55.24755753 -7.6483633 55.24755753 -6 57 C-6 57.66 -6 58.32 -6 59 C-5.071875 58.95875 -4.14375 58.9175 -3.1875 58.875 C0 59 0 59 3 61 C2.9375 62.8125 2.9375 62.8125 2 65 C0.88625 65.433125 -0.2275 65.86625 -1.375 66.3125 C-6.03003317 68.4794982 -6.0649159 70.40417527 -8 75 C-11.08939865 77.80349029 -14.02822817 79.01868792 -18.25 78.9375 C-21.09503171 77.96760283 -22.3252403 77.46806693 -24 75 C-24.9375 72.75 -24.9375 72.75 -25 70 C-22.83237563 65.16453026 -21.06009154 62.09808674 -16 60 C-13.1875 59.8125 -13.1875 59.8125 -11 60 C-11.495 59.0925 -11.99 58.185 -12.5 57.25 C-14 54 -14 54 -14 50 C-15.32 49.67 -16.64 49.34 -18 49 C-18 48.01 -18 47.02 -18 46 C-12.72999043 43.16980967 -7.81707372 41.23747919 -2.00390625 39.80859375 C-1.34261719 39.54175781 -0.68132812 39.27492187 0 39 C0.33 38.01 0.66 37.02 1 36 C-4.82637103 37.60559703 -10.29556013 39.48464694 -15.77734375 42.02734375 C-18.74825927 43.32744562 -21.78872329 44.29871775 -24.87890625 45.2734375 C-27.28383157 46.05293597 -27.28383157 46.05293597 -30.5625 47.6875 C-34.72361643 49.27628991 -37.58509775 49.23236328 -42 49 C-42.1875 46.125 -42.1875 46.125 -42 43 C-39 41 -39 41 -36 41 C-36 41.66 -36 42.32 -36 43 C-35.21496094 42.65066406 -34.42992187 42.30132812 -33.62109375 41.94140625 C-28.04966092 39.52825804 -23.08272909 37.41473153 -17 37 C-16.67 34.69 -16.34 32.38 -16 30 C-16.391875 30.804375 -16.78375 31.60875 -17.1875 32.4375 C-19 35 -19 35 -24 36 C-24 27.42 -24 18.84 -24 10 C-21.66666667 10 -19.33333333 10 -17 10 C-16.38125 9.505 -15.7625 9.01 -15.125 8.5 C-13 7 -13 7 -9 7 C-7.64984141 11.05047576 -8.37915002 13.7920168 -9 18 C-5.19527678 13.56115625 -3.52046348 9.83692992 -1.9375 4.25 C-1 1 -1 1 0 0 Z M-7 23 C-7.66 25.31 -8.32 27.62 -9 30 C-7.68 29.01 -6.36 28.02 -5 27 C-5.33 25.68 -5.66 24.36 -6 23 C-6.33 23 -6.66 23 -7 23 Z M-18 68 C-18.33397787 71.12586875 -18.33397787 71.12586875 -18 74 C-14.45529741 73.70460812 -13.21784705 73.22373481 -10.6875 70.625 C-8.7296212 68.09951442 -8.7296212 68.09951442 -9 65 C-13.00406942 64.66632755 -15.24653799 64.94059776 -18 68 Z " fill="#1C87C6" transform="translate(403,5)"/>
<path d="M0 0 C7.39757094 1.80114771 14.0788932 1.26138439 21.40234375 -0.546875 C26.96410586 -1.71353758 32.38431797 -1.47140506 37.5625 1 C40.70156582 4.13906582 42.05843201 6.5894051 42.5625 11 C43.2225 11 43.8825 11 44.5625 11 C45.09875 11.845625 45.635 12.69125 46.1875 13.5625 C50.20475552 19.88817847 55.94280195 23.76370318 62.5625 27 C67.23284228 31.13962157 69.408945 33.61989755 69.8125 39.875 C69.83372385 42.49614539 69.48690712 44.20345116 68.5625 46.69140625 C67.29015929 50.90106476 67.26949067 54.69346928 67.3125 59.0625 C67.30476563 59.85205078 67.29703125 60.64160156 67.2890625 61.45507812 C67.30365266 65.80659312 67.69593564 68.99814411 69.5625 73 C70.08054251 78.59485907 69.21735345 82.16437407 66.5625 87 C64.375 88.4375 64.375 88.4375 62.5625 89 C62.5625 89.66 62.5625 90.32 62.5625 91 C61.9334375 91.25652344 61.304375 91.51304688 60.65625 91.77734375 C51.02136899 96.08692155 45.30212917 102.60927956 40.765625 112.0546875 C38.39756453 115.88356449 34.77091055 117.69739674 30.5625 119 C27.36983033 119.26605581 25.19298726 119.26103646 22.22265625 118.03125 C12.29524209 114.18273702 1.7691916 116.67726245 -8.25 118.8125 C-13.07612544 119.09638973 -16.64399186 117.44637753 -20.375 114.4375 C-21.4375 113 -21.4375 113 -21.4375 111 C-22.0975 111 -22.7575 111 -23.4375 111 C-23.69144531 110.45730469 -23.94539063 109.91460937 -24.20703125 109.35546875 C-24.55121094 108.64003906 -24.89539063 107.92460938 -25.25 107.1875 C-25.58644531 106.47980469 -25.92289063 105.77210937 -26.26953125 105.04296875 C-27.35163325 102.94242539 -27.35163325 102.94242539 -29.07421875 101.36328125 C-29.52410156 100.91339844 -29.97398438 100.46351562 -30.4375 100 C-30.4375 99.34 -30.4375 98.68 -30.4375 98 C-30.97375 97.7525 -31.51 97.505 -32.0625 97.25 C-34.4375 96 -34.4375 96 -37.5 93.9375 C-40.3210734 91.89527457 -40.3210734 91.89527457 -43.4375 91 C-43.4375 90.34 -43.4375 89.68 -43.4375 89 C-44.035625 88.79375 -44.63375 88.5875 -45.25 88.375 C-48.3994967 86.39531636 -49.15271386 84.46892258 -50.4375 81 C-50.80302188 76.54063301 -50.49757826 72.94920415 -49.4375 68.625 C-47.65413762 61.21130784 -48.17896291 54.5621906 -49.98046875 47.2265625 C-51.0186717 42.16865071 -50.98007123 37.65962965 -49.375 32.75 C-46.95170188 29.31048009 -44.18842018 26.926609 -40.4375 25 C-39.4475 25 -38.4575 25 -37.4375 25 C-37.4375 24.34 -37.4375 23.68 -37.4375 23 C-36.798125 22.896875 -36.15875 22.79375 -35.5 22.6875 C-34.819375 22.460625 -34.13875 22.23375 -33.4375 22 C-33.1075 21.01 -32.7775 20.02 -32.4375 19 C-31.7775 19 -31.1175 19 -30.4375 19 C-30.1075 18.01 -29.7775 17.02 -29.4375 16 C-28.7775 16 -28.1175 16 -27.4375 16 C-27.210625 15.34 -26.98375 14.68 -26.75 14 C-25.0496185 10.11341372 -23.04126916 6.36320183 -20.4375 3 C-19.7775 3 -19.1175 3 -18.4375 3 C-18.4375 2.34 -18.4375 1.68 -18.4375 1 C-12.49902864 -2.06501748 -6.31998594 -1.56601421 0 0 Z M-17.4375 4 C-19.73065023 6.98804423 -21.45458457 10.03294882 -23.1875 13.375 C-27.2655469 20.54728482 -33.22370507 25.1996364 -40.453125 28.9140625 C-44.19796725 30.96340531 -46.09889035 32.98417106 -47.4375 37 C-47.66452011 40.85934191 -47.46925433 43.88489055 -46.4375 47.625 C-44.5005094 54.75035829 -44.66525873 62.62321587 -46.5 69.75 C-47.9608072 75.46711596 -47.76751248 80.60597754 -44.875 85.8125 C-41.52634348 88.81770457 -37.10001716 92 -32.4375 92 C-32.4375 92.66 -32.4375 93.32 -32.4375 94 C-30.78747172 95.35386936 -29.1200613 96.68678142 -27.4375 98 C-26.9425 98.99 -26.9425 98.99 -26.4375 100 C-25.7775 100 -25.1175 100 -24.4375 100 C-24.1075 101.32 -23.7775 102.64 -23.4375 104 C-22.7775 104 -22.1175 104 -21.4375 104 C-21.375625 104.721875 -21.31375 105.44375 -21.25 106.1875 C-20.14793314 110.00234681 -18.5178752 111.52230691 -15.4375 114 C-10.22691447 116.17897213 -7.60145442 116.04406529 -2.4375 114 C6.0324776 112.37115815 13.39817489 112.62170886 21.75 114.6875 C27.26651666 116.04909555 27.26651666 116.04909555 32.6875 115 C36.47562329 112.3647838 38.59425532 109.79419142 40.78515625 105.734375 C45.79719318 96.63173411 52.35885517 91.60182241 61.5625 87 C65.37725874 83.28834284 66.37662199 80.29752336 66.5625 75 C66.25054687 74.07703125 65.93859375 73.1540625 65.6171875 72.203125 C62.76182258 63.53127598 63.16305237 54.67492604 65.5625 46 C66.48758135 41.79437809 66.82279039 38.71579857 65.3125 34.5625 C63.75590107 31.72830965 63.75590107 31.72830965 60.5625 31 C60.5625 30.34 60.5625 29.68 60.5625 29 C59.27336513 28.32845067 57.98109796 27.66291141 56.6875 27 C55.60855469 26.443125 55.60855469 26.443125 54.5078125 25.875 C52.61401023 24.86326254 52.61401023 24.86326254 50.5625 25 C50.5625 24.34 50.5625 23.68 50.5625 23 C48.91247172 21.64613064 47.2450613 20.31321858 45.5625 19 C45.0675 18.01 45.0675 18.01 44.5625 17 C43.9025 17 43.2425 17 42.5625 17 C42.1603125 15.6696875 42.1603125 15.6696875 41.75 14.3125 C40.6374365 11.2090334 39.46054222 8.68889315 37.5625 6 C36.9025 6 36.2425 6 35.5625 6 C35.5625 5.34 35.5625 4.68 35.5625 4 C30.6350507 1.20777873 25.921141 2.1373895 20.5625 3 C19.93988281 3.1753125 19.31726563 3.350625 18.67578125 3.53125 C10.67586241 5.30572368 2.32868522 4.17998182 -5.4375 2 C-9.94251539 1.69457523 -13.50396516 1.66114144 -17.4375 4 Z " fill="#3594CC" transform="translate(50.4375,1)"/>
<path d="M0 0 C0.495 2.475 0.495 2.475 1 5 C0.30132812 5.48210938 -0.39734375 5.96421875 -1.1171875 6.4609375 C-2.02726562 7.09257812 -2.93734375 7.72421875 -3.875 8.375 C-4.77992188 9.00148438 -5.68484375 9.62796875 -6.6171875 10.2734375 C-9.03494125 11.9298095 -9.03494125 11.9298095 -11 14 C-10.01 14.33 -9.02 14.66 -8 15 C-7.21696563 18.39164237 -6.92006514 21.3531247 -7.12109375 24.82421875 C-7.16935303 25.75862793 -7.2176123 26.69303711 -7.26733398 27.65576172 C-7.32348877 28.65623535 -7.37964355 29.65670898 -7.4375 30.6875 C-7.9663012 41.06874483 -8.06538956 51.40277976 -7.87475586 61.7956543 C-7.86323486 62.84019775 -7.85171387 63.88474121 -7.83984375 64.9609375 C-7.82300537 65.88696777 -7.80616699 66.81299805 -7.78881836 67.76708984 C-8 70 -8 70 -10 72 C-11.32 72 -12.64 72 -14 72 C-14.83819158 70.37750059 -15.6704116 68.75191503 -16.5 67.125 C-16.9640625 66.22007813 -17.428125 65.31515625 -17.90625 64.3828125 C-19 62 -19 62 -19 60 C-17.35 60.66 -15.7 61.32 -14 62 C-13.00562904 52.56973106 -12.87917019 43.21703743 -12.9375 33.75 C-12.94253077 32.31119949 -12.94709086 30.87239726 -12.95117188 29.43359375 C-12.96203936 25.95569249 -12.97921472 22.47785783 -13 19 C-13.99 19 -14.98 19 -16 19 C-16.33 21.97 -16.66 24.94 -17 28 C-16.34 28 -15.68 28 -15 28 C-15 31.96 -15 35.92 -15 40 C-17.475 40.495 -17.475 40.495 -20 41 C-21.8125 39.5625 -21.8125 39.5625 -23 38 C-23.4125 38.825 -23.825 39.65 -24.25 40.5 C-24.8275 41.325 -25.405 42.15 -26 43 C-27.32 43 -28.64 43 -30 43 C-29.67 40.36 -29.34 37.72 -29 35 C-28.34 35 -27.68 35 -27 35 C-26.91878906 34.32582031 -26.83757812 33.65164062 -26.75390625 32.95703125 C-25.77189506 29.10530859 -23.96156811 26.08192164 -21.9375 22.6875 C-21.56044922 22.04232422 -21.18339844 21.39714844 -20.79492188 20.73242188 C-19.86962507 19.15121848 -18.93567319 17.5750854 -18 16 C-18.69867188 16.5053125 -19.39734375 17.010625 -20.1171875 17.53125 C-21.48230469 18.50578125 -21.48230469 18.50578125 -22.875 19.5 C-23.77992188 20.1496875 -24.68484375 20.799375 -25.6171875 21.46875 C-28 23 -28 23 -30 23 C-30 23.66 -30 24.32 -30 25 C-31.18169546 26.14793273 -32.36571177 27.29359238 -33.5625 28.42578125 C-35.76250794 30.83502907 -37.28194639 33.59782735 -38.88671875 36.42578125 C-39.43779297 37.20501953 -39.43779297 37.20501953 -40 38 C-40.66 38 -41.32 38 -42 38 C-42.12117187 38.76183594 -42.24234375 39.52367187 -42.3671875 40.30859375 C-42.89206207 43.54262862 -43.44189916 46.77154166 -44 50 C-44.2165625 51.31677734 -44.2165625 51.31677734 -44.4375 52.66015625 C-45.10550651 56.23279823 -45.72497559 58.60168879 -47.8125 61.625 C-50 63 -50 63 -52.625 62.9375 C-55 62 -55 62 -57 59 C-57.91156893 52.17663843 -56.49507698 45.2858761 -55.44140625 38.55859375 C-54.88651444 34.08508548 -54.89064242 29.72972569 -55.02734375 25.23046875 C-55 23 -55 23 -54 22 C-52.1875 22.0859375 -52.1875 22.0859375 -50 22.375 C-49.278125 22.46523438 -48.55625 22.55546875 -47.8125 22.6484375 C-46 23 -46 23 -45 24 C-44.75 27.375 -44.75 27.375 -45 31 C-45.97753644 32.02196992 -46.9805881 33.01979625 -48 34 C-49.506184 38.83564337 -50.25468939 42.9062121 -50 48 C-49.649375 46.906875 -49.29875 45.81375 -48.9375 44.6875 C-45.70224403 36.20427121 -40.39652799 29.13665277 -34.375 22.4375 C-33.91996094 21.92477539 -33.46492188 21.41205078 -32.99609375 20.88378906 C-30.23946848 17.91742057 -27.88151788 16.18407314 -24 15 C-24 14.34 -24 13.68 -24 13 C-22.68 12.67 -21.36 12.34 -20 12 C-20 11.34 -20 10.68 -20 10 C-17.734375 8.37890625 -17.734375 8.37890625 -14.75 6.5625 C-10.67703158 4.07669388 -10.67703158 4.07669388 -6.8125 1.2890625 C-4.45161159 -0.39001762 -2.83034734 -0.23586228 0 0 Z M-19 25 C-19.33 26.32 -19.66 27.64 -20 29 C-19.34 27.68 -18.68 26.36 -18 25 C-18.33 25 -18.66 25 -19 25 Z " fill="#1E87C6" transform="translate(206,11)"/>
<path d="M0 0 C7.12954156 2.23671892 14.25378577 1.46532062 21.1875 -1 C25.73237961 -1.57949285 29.16823769 -1.45966731 33.375 0.4375 C36.45987804 3.24816666 38.40709496 6.11813413 40.62890625 9.62109375 C45.15702758 16.53243683 49.55144711 20.78481983 57.1875 24 C57.1875 24.66 57.1875 25.32 57.1875 26 C57.80625 26.268125 58.425 26.53625 59.0625 26.8125 C61.1875 28 61.1875 28 63.1875 31 C63.75136315 36.13281304 63.55361286 41.26368807 62.1875 46.25 C60.78449184 51.51128059 60.78449184 55.48871941 62.1875 60.75 C63.67373417 66.37801909 64.86772967 72.80756363 62.0546875 78.15234375 C58.92941943 82.02211285 55.65650597 83.85487714 51.1875 86 C46.37752175 89.40948258 42.98246464 92.99595216 40.0625 98.125 C37.49122244 102.62302155 35.74959493 105.41768211 31.1875 108 C24.74843695 108.90732252 19.36456998 107.83024296 13.1875 106 C8.78168169 105.58942195 5.01022058 105.7606631 0.75 107 C-4.63616801 108.51190681 -10.1598719 109.19652185 -15.3671875 106.84765625 C-18.33356675 104.60628663 -19.86030416 102.28157472 -21.8125 99.125 C-26.2782404 91.94019993 -31.55299817 85.75316728 -39.8125 83 C-46.09756153 75.76265642 -46.09756153 75.76265642 -46.0625 70.6875 C-46.07023437 69.57955078 -46.07023437 69.57955078 -46.078125 68.44921875 C-45.8125 66 -45.8125 66 -44.8125 63.11328125 C-43.72910792 59.740377 -43.5456747 57.0333122 -43.5625 53.5 C-43.55476563 51.87578125 -43.55476563 51.87578125 -43.546875 50.21875 C-43.82466263 46.85261748 -44.69255602 44.17244831 -45.8125 41 C-46.56570154 35.67868005 -45.89169951 31.51615927 -42.8125 27 C-37.75986842 23 -37.75986842 23 -33.8125 23 C-33.8125 22.34 -33.8125 21.68 -33.8125 21 C-32.4925 20.67 -31.1725 20.34 -29.8125 20 C-29.8125 19.34 -29.8125 18.68 -29.8125 18 C-28.4375 16.375 -28.4375 16.375 -26.8125 15 C-26.1525 15 -25.4925 15 -24.8125 15 C-24.4825 13.68 -24.1525 12.36 -23.8125 11 C-23.1525 11 -22.4925 11 -21.8125 11 C-21.750625 10.278125 -21.68875 9.55625 -21.625 8.8125 C-20.39908954 4.5689638 -17.6737947 2.10910138 -13.91796875 -0.12890625 C-9.48133016 -1.96447287 -4.45677639 -1.5846316 0 0 Z M-17.8125 7 C-18.82237513 8.62717146 -19.79958377 10.27489851 -20.75 11.9375 C-24.52604309 18.53090167 -28.89457243 22.0610275 -35.5625 25.5625 C-39.23304587 27.53846677 -41.38525515 28.90856475 -42.8125 33 C-43.16009675 37.31019971 -43.05916483 40.18292276 -41.8125 44.3125 C-40.11485864 50.57255251 -40.10685686 56.97566989 -41.8125 63.25 C-42.86635617 67.20196064 -43.40224263 69.94551939 -42.8125 74 C-39.61007167 79.40196096 -35.23863732 82.13894578 -29.8125 85 C-24.73602342 88.58008253 -22.10644597 92.91299037 -18.875 98.125 C-16.35463585 101.63823488 -13.97292336 104.54959372 -9.6015625 105.4609375 C-5.9319753 105.31521382 -2.87313098 105.01732314 0.6875 104 C6.31437874 102.39232036 11.55140722 102.43130618 17.1875 104 C22.71787701 105.52333738 27.93814393 106.27137517 33.0625 103.375 C35.74843053 100.37307764 38.1875 97.1655124 38.1875 93 C38.8475 93 39.5075 93 40.1875 93 C41.298182 91.79260954 42.35215549 90.53265169 43.375 89.25 C46.70001405 85.32358008 49.64920326 83.3531909 54.1875 81 C57.75730613 78.48041825 57.75730613 78.48041825 60.1875 75 C60.59163741 70.02817004 60.39826026 65.32634465 59.125 60.5 C57.73400539 54.98500023 58.23891489 49.49660933 59.72265625 44.02734375 C60.27957578 41.5984258 60.31993331 39.36515771 60.3125 36.875 C60.31507812 36.00617187 60.31765625 35.13734375 60.3203125 34.2421875 C60.33287934 31.96280551 60.33287934 31.96280551 59.1875 30 C58.5275 30 57.8675 30 57.1875 30 C56.6925 28.515 56.6925 28.515 56.1875 27 C54.49304677 25.90590214 54.49304677 25.90590214 52.4375 25.0625 C44.4906664 21.29448264 40.20713609 15.88569426 36.1875 8.25 C34.06070667 4.79396084 32.92848778 3.47899517 29.1875 2 C25.39836951 1.64915458 22.63424284 1.85984538 19 3 C11.13825417 5.06209727 3.88471273 4.36837315 -3.8125 2 C-9.81478965 1.06840691 -13.94331168 2.24036834 -17.8125 7 Z " fill="#3795CC" transform="translate(50.8125,6)"/>
<path d="M0 0 C1.65 0 3.3 0 5 0 C4.60068632 6.50518292 2.96033634 10.57278199 -0.5625 16 C-0.98724609 16.67933594 -1.41199219 17.35867187 -1.84960938 18.05859375 C-2.8870117 19.71377499 -3.94173201 21.35808118 -5 23 C-2.43686397 22.14562132 -0.51538326 21.18816491 1.8125 19.875 C5.5593344 17.94963962 7.87179379 17.76153814 12 19 C11.8125 20.875 11.8125 20.875 11 23 C9.33927151 23.68132451 7.672233 24.34742127 6 25 C4.92920966 26.80141772 4.92920966 26.80141772 4 29 C3.39671875 30.18916016 3.39671875 30.18916016 2.78125 31.40234375 C2.3584375 32.23894531 1.935625 33.07554688 1.5 33.9375 C1.0771875 34.77152344 0.654375 35.60554688 0.21875 36.46484375 C-0.97138293 38.94047282 -2.01023748 41.43853126 -3 44 C-0.64214682 43.10664203 -0.64214682 43.10664203 0.125 39.9375 C0.41375 38.968125 0.7025 37.99875 1 37 C2.32 37 3.64 37 5 37 C5.33 36.01 5.66 35.02 6 34 C5.34 34 4.68 34 4 34 C4 33.01 4 32.02 4 31 C9.75 29.875 9.75 29.875 12 31 C12 33.97 12 36.94 12 40 C14.64 40 17.28 40 20 40 C21.0625 41.875 21.0625 41.875 22 44 C21.505 44.99 21.505 44.99 21 46 C20.37351562 45.91621094 19.74703125 45.83242188 19.1015625 45.74609375 C17.87566406 45.59333984 17.87566406 45.59333984 16.625 45.4375 C15.81289063 45.33308594 15.00078125 45.22867188 14.1640625 45.12109375 C11.95100814 44.81762672 11.95100814 44.81762672 10 46 C10.33 49.3 10.66 52.6 11 56 C10.34 56 9.68 56 9 56 C8.81824219 56.73605469 8.63648438 57.47210938 8.44921875 58.23046875 C5.95254833 67.92267135 5.95254833 67.92267135 3 72 C1.35 71.67 -0.3 71.34 -2 71 C-2 69.02 -2 67.04 -2 65 C-1.01 64.505 -1.01 64.505 0 64 C0.90343684 62.11736119 0.90343684 62.11736119 1.625 59.9375 C1.88539063 59.20402344 2.14578125 58.47054687 2.4140625 57.71484375 C2.60742188 57.14894531 2.80078125 56.58304688 3 56 C2.01 56.66 1.02 57.32 0 58 C-3 58.375 -3 58.375 -6 58 C-8.467339 55.7793949 -8.96152446 54.56430797 -9.1875 51.25 C-9.125625 50.5075 -9.06375 49.765 -9 49 C-10.65 48.67 -12.3 48.34 -14 48 C-14.33 46.68 -14.66 45.36 -15 44 C-13.15921875 44.00193359 -13.15921875 44.00193359 -11.28125 44.00390625 C-8.60715137 43.66964392 -7.4030185 43.45227942 -5.58984375 41.41748047 C-4.41129105 39.29906279 -3.43245374 37.17500681 -2.5 34.9375 C-2.15453125 34.17888672 -1.8090625 33.42027344 -1.453125 32.63867188 C-0.60759695 30.77146411 0.20002569 28.88717345 1 27 C1.66 27 2.32 27 3 27 C2.67 26.34 2.34 25.68 2 25 C1.34 25 0.68 25 0 25 C0 25.66 0 26.32 0 27 C-5.17578125 30.22265625 -5.17578125 30.22265625 -7 31 C-7.99 30.67 -8.98 30.34 -10 30 C-9.75393155 22.74098081 -7.65573035 17.57221913 -4.375 11.11328125 C-3.0091316 8.02067581 -2.40095228 5.34293961 -2 2 C-1.34 2 -0.68 2 0 2 C0 1.34 0 0.68 0 0 Z M-3 48 C-3.33 48.66 -3.66 49.32 -4 50 C-3.34 50 -2.68 50 -2 50 C-2.33 49.34 -2.66 48.68 -3 48 Z M3 48 C2.34 48.66 1.68 49.32 1 50 C1.99 50 2.98 50 4 50 C3.67 49.34 3.34 48.68 3 48 Z " fill="#1A86C5" transform="translate(260,12)"/>
<path d="M0 0 C1.65 0 3.3 0 5 0 C7.93087534 4.03809491 6.79254053 8.12325357 6.125 12.75 C6.02058594 13.54277344 5.91617187 14.33554687 5.80859375 15.15234375 C5.5500661 17.10305241 5.27649734 19.05175719 5 21 C6.918125 20.9690625 6.918125 20.9690625 8.875 20.9375 C12.75 20.875 12.75 20.875 15 22 C15 23.98 15 25.96 15 28 C11.04 28.99 7.08 29.98 3 31 C2.7525 32.32 2.505 33.64 2.25 35 C0.60006828 42.33815786 -2.15319221 48.07637239 -8 53 C-8.66 53 -9.32 53 -10 53 C-10 53.66 -10 54.32 -10 55 C-13.47325181 56.1577506 -16.36067448 56.06866652 -20 56 C-19.67 54.35 -19.34 52.7 -19 51 C-18.443125 50.9175 -17.88625 50.835 -17.3125 50.75 C-13.00518534 49.35303308 -10.49599999 46.83061169 -8.19921875 42.984375 C-7.70035156 41.91703125 -7.20148438 40.8496875 -6.6875 39.75 C-6.17574219 38.67234375 -5.66398437 37.5946875 -5.13671875 36.484375 C-4.76160156 35.66453125 -4.38648438 34.8446875 -4 34 C-4.77085937 34.32355469 -5.54171875 34.64710937 -6.3359375 34.98046875 C-9.18160101 36.06949833 -10.98632397 36.39653632 -14 36 C-15.875 34.8125 -15.875 34.8125 -17 33 C-16.6875 30.3125 -16.6875 30.3125 -16 28 C-11.59917251 27.14130195 -7.47726307 26.9574101 -3 27 C-2.98018066 26.32420898 -2.96036133 25.64841797 -2.93994141 24.95214844 C-2.84456762 21.88437956 -2.73493835 18.81728002 -2.625 15.75 C-2.57859375 14.15478516 -2.57859375 14.15478516 -2.53125 12.52734375 C-2.49257813 11.50253906 -2.45390625 10.47773438 -2.4140625 9.421875 C-2.3826416 8.47924805 -2.3512207 7.53662109 -2.31884766 6.56542969 C-1.99399023 3.95164571 -1.32323838 2.25646966 0 0 Z " fill="#1F88C6" transform="translate(320,18)"/>
<path d="M0 0 C0.061875 0.61875 0.12375 1.2375 0.1875 1.875 C0.828919 4.27761141 0.828919 4.27761141 3.5625 5.25 C4.366875 5.4975 5.17125 5.745 6 6 C6 6.66 6 7.32 6 8 C6.8971875 8.433125 6.8971875 8.433125 7.8125 8.875 C10 10 10 10 13 12 C13.49628906 11.52949219 13.99257813 11.05898438 14.50390625 10.57421875 C22.3515848 3.38175435 29.36208242 0.985835 40 1 C49.5952006 2.16936501 56.38868597 7.38868597 63 14 C63.99 13.34 64.98 12.68 66 12 C66.99 12.33 67.98 12.66 69 13 C69.33 12.01 69.66 11.02 70 10 C68.62831762 7.80961577 68.62831762 7.80961577 67 6 C67.99 6 68.98 6 70 6 C70 6.66 70 7.32 70 8 C71.3303125 7.2265625 71.3303125 7.2265625 72.6875 6.4375 C76.20023331 4.9131063 77.44706507 4.85052105 81 6 C81 6.66 81 7.32 81 8 C81.99 8.33 82.98 8.66 84 9 C83.01 9.61875 82.02 10.2375 81 10.875 C80.01 11.57625 79.02 12.2775 78 13 C78 13.66 78 14.32 78 15 C75.36 14.67 72.72 14.34 70 14 C70.495 15.98 70.495 15.98 71 18 C69.02 18 67.04 18 65 18 C65.34224609 19.01707031 65.34224609 19.01707031 65.69140625 20.0546875 C67.71173564 26.59584364 68.67135348 32.26431982 67 39 C66.34 39.99 65.68 40.98 65 42 C63.79638864 38.38916591 64.04641184 35.61425381 64.1875 31.8125 C64.29064281 25.59795992 63.70898928 21.07864872 60 16 C59.236875 14.9275 58.47375 13.855 57.6875 12.75 C52.76899953 7.7171158 47.59493218 5.13795451 40.5390625 4.8671875 C38.60160156 4.87105469 38.60160156 4.87105469 36.625 4.875 C35.33851562 4.87242188 34.05203125 4.86984375 32.7265625 4.8671875 C29.3825749 4.98636526 26.27902051 5.36043872 23 6 C23 6.66 23 7.32 23 8 C21.68 8.33 20.36 8.66 19 9 C19 9.66 19 10.32 19 11 C17.33333333 12.66666667 15.66666667 14.33333333 14 16 C9.34077879 22.65603031 9.37264421 30.10577303 10 38 C10.76797827 40.54950925 11.78154221 42.6138535 13 45 C13 45.99 13 46.98 13 48 C13.66 48 14.32 48 15 48 C16.70680947 49.62553283 18.37660195 51.29115995 20 53 C19.67 53.99 19.34 54.98 19 56 C14.22910755 54.40970252 11.38430062 50.50340955 8.98046875 46.15625 C5.06413525 37.35896884 4.9571299 28.93899755 8.1484375 19.9453125 C9 18 9 18 11 15 C8.69 13.02 6.38 11.04 4 9 C3.67 9.99 3.34 10.98 3 12 C2.34 11.01 1.68 10.02 1 9 C1.309375 9.928125 1.61875 10.85625 1.9375 11.8125 C2.625 13.875 3.3125 15.9375 4 18 C0 18 0 18 -1.484375 16.6875 C-2.65625 15.125 -3.828125 13.5625 -5 12 C-4.01 11.67 -3.02 11.34 -2 11 C-1.93941406 10.37351562 -1.87882812 9.74703125 -1.81640625 9.1015625 C-1.73261719 8.28429688 -1.64882813 7.46703125 -1.5625 6.625 C-1.48128906 5.81289063 -1.40007813 5.00078125 -1.31640625 4.1640625 C-1 2 -1 2 0 0 Z M-1 12 C0 14 0 14 0 14 Z " fill="#56A5D4" transform="translate(23,28)"/>
<path d="M0 0 C7.12954156 2.23671892 14.25378577 1.46532062 21.1875 -1 C24.19570491 -1.16961686 27.17803031 -1.12037879 30.1875 -1 C30.6825 0.485 30.6825 0.485 31.1875 2 C30.61902344 2.04898437 30.05054687 2.09796875 29.46484375 2.1484375 C25.75435952 2.50771644 22.4407851 2.91875761 18.875 4.0625 C11.05558291 6.0504874 3.8285209 5.35108335 -3.8125 3 C-7.71751343 2.47229548 -10.8665471 2.50450086 -14.4375 4.375 C-16.63494361 6.80375346 -18.01862981 8.98304903 -19.625 11.8125 C-23.96926875 19.37598329 -30.08381239 24.1356562 -37.8125 28 C-38.4725 28 -39.1325 28 -39.8125 28 C-42.53234606 33.43969213 -42.53283724 38.6138829 -40.8125 44.3125 C-39.12178361 50.5470167 -39.09113156 56.94139167 -40.8125 63.1875 C-41.91521879 67.39161539 -41.96664172 70.68403188 -41.8125 75 C-43.1325 74.67 -44.4525 74.34 -45.8125 74 C-46.0633642 66.72493827 -46.0633642 66.72493827 -44.8203125 63.1328125 C-43.73210444 59.75008821 -43.54562501 57.04374808 -43.5625 53.5 C-43.55476563 51.87578125 -43.55476563 51.87578125 -43.546875 50.21875 C-43.82466263 46.85261748 -44.69255602 44.17244831 -45.8125 41 C-46.56570154 35.67868005 -45.89169951 31.51615927 -42.8125 27 C-37.75986842 23 -37.75986842 23 -33.8125 23 C-33.8125 22.34 -33.8125 21.68 -33.8125 21 C-32.4925 20.67 -31.1725 20.34 -29.8125 20 C-29.8125 19.34 -29.8125 18.68 -29.8125 18 C-28.4375 16.375 -28.4375 16.375 -26.8125 15 C-26.1525 15 -25.4925 15 -24.8125 15 C-24.4825 13.68 -24.1525 12.36 -23.8125 11 C-23.1525 11 -22.4925 11 -21.8125 11 C-21.750625 10.278125 -21.68875 9.55625 -21.625 8.8125 C-20.39908954 4.5689638 -17.6737947 2.10910138 -13.91796875 -0.12890625 C-9.48133016 -1.96447287 -4.45677639 -1.5846316 0 0 Z " fill="#2C8FC9" transform="translate(50.8125,6)"/>
<path d="M0 0 C1.65 0 3.3 0 5 0 C4.60068632 6.50518292 2.96033634 10.57278199 -0.5625 16 C-0.98724609 16.67933594 -1.41199219 17.35867187 -1.84960938 18.05859375 C-2.8870117 19.71377499 -3.94173201 21.35808118 -5 23 C-2.43686397 22.14562132 -0.51538326 21.18816491 1.8125 19.875 C5.5593344 17.94963962 7.87179379 17.76153814 12 19 C11.8125 20.875 11.8125 20.875 11 23 C9.33927151 23.68132451 7.672233 24.34742127 6 25 C4.91557212 26.78664845 4.91557212 26.78664845 4 29 C3.21725409 30.7332231 2.42518562 32.46225902 1.625 34.1875 C1.22539062 35.06792969 0.82578125 35.94835938 0.4140625 36.85546875 C-1 39 -1 39 -3.1640625 39.80078125 C-4.07285156 39.89939453 -4.07285156 39.89939453 -5 40 C-3.58707905 35.1725201 -1.57025846 31.2837641 1 27 C1.66 27 2.32 27 3 27 C2.67 26.34 2.34 25.68 2 25 C1.34 25 0.68 25 0 25 C0 25.66 0 26.32 0 27 C-5.17578125 30.22265625 -5.17578125 30.22265625 -7 31 C-7.99 30.67 -8.98 30.34 -10 30 C-9.75393155 22.74098081 -7.65573035 17.57221913 -4.375 11.11328125 C-3.0091316 8.02067581 -2.40095228 5.34293961 -2 2 C-1.34 2 -0.68 2 0 2 C0 1.34 0 0.68 0 0 Z " fill="#2B8EC9" transform="translate(260,12)"/>
<path d="M0 0 C2.625 0.25 2.625 0.25 4.5 1.4375 C5.625 3.25 5.625 3.25 5.625 5.625 C4.625 8.25 4.625 8.25 2.0625 10.5625 C-0.56769232 13.46245564 -0.71334909 13.89192873 -0.6875 17.5625 C-0.584375 18.779375 -0.48125 19.99625 -0.375 21.25 C1.275 17.95 2.925 14.65 4.625 11.25 C4.955 11.25 5.285 11.25 5.625 11.25 C5.15309651 28.04976416 5.15309651 28.04976416 -0.875 34.97265625 C-1.6175 35.60494141 -1.6175 35.60494141 -2.375 36.25 C-4.51245922 35.99853421 -5.83425779 35.79074221 -7.375 34.25 C-8.13333264 25.60500795 -6.28761417 15.07522834 -2.375 7.25 C-2.70170903 5.24890722 -3.03477214 3.24883869 -3.375 1.25 C-2.375 0.25 -2.375 0.25 0 0 Z " fill="#1D87C6" transform="translate(233.375,42.75)"/>
<path d="M0 0 C9.9609375 -0.29296875 9.9609375 -0.29296875 13 0 C15.1642235 3.24633524 15.37569856 4.24301443 15 8 C14.01 9.485 14.01 9.485 13 11 C14.32 13.64 15.64 16.28 17 19 C15.68 19 14.36 19 13 19 C13 18.34 13 17.68 13 17 C12.34 17 11.68 17 11 17 C10.566875 16.195625 10.13375 15.39125 9.6875 14.5625 C8.23212941 11.75717669 8.23212941 11.75717669 5.3125 11.1875 C4.549375 11.125625 3.78625 11.06375 3 11 C3 13.64 3 16.28 3 19 C2.01 19 1.02 19 0 19 C0 12.73 0 6.46 0 0 Z M3 3 C3 4.65 3 6.3 3 8 C5.31 8 7.62 8 10 8 C10.66 6.68 11.32 5.36 12 4 C11.01732141 2.79438816 11.01732141 2.79438816 9.15234375 2.90234375 C7.1015625 2.93489583 5.05078125 2.96744792 3 3 Z " fill="#3392CB" transform="translate(331,95)"/>
<path d="M0 0 C4.62 0 9.24 0 14 0 C14 0.99 14 1.98 14 3 C10.7 3 7.4 3 4 3 C4 4.32 4 5.64 4 7 C7.3 7 10.6 7 14 7 C14 7.99 14 8.98 14 10 C10.7 10 7.4 10 4 10 C4 11.98 4 13.96 4 16 C7.63 16 11.26 16 15 16 C15 16.99 15 17.98 15 19 C10.05 19 5.1 19 0 19 C0 12.73 0 6.46 0 0 Z " fill="#469CD0" transform="translate(312,95)"/>
<path d="M0 0 C0.99 0 1.98 0 3 0 C3 2.31 3 4.62 3 7 C5.97 7 8.94 7 12 7 C12 4.69 12 2.38 12 0 C13.32 0 14.64 0 16 0 C16 6.27 16 12.54 16 19 C14.68 19 13.36 19 12 19 C12 16.03 12 13.06 12 10 C9.03 10 6.06 10 3 10 C3 12.97 3 15.94 3 19 C2.01 19 1.02 19 0 19 C0 12.73 0 6.46 0 0 Z " fill="#469DD0" transform="translate(149,95)"/>
<path d="M0 0 C0.99 0 1.98 0 3 0 C3 2.31 3 4.62 3 7 C5.64 7 8.28 7 11 7 C11 4.69 11 2.38 11 0 C12.32 0 13.64 0 15 0 C15 6.27 15 12.54 15 19 C13.68 19 12.36 19 11 19 C11 16.03 11 13.06 11 10 C8.36 10 5.72 10 3 10 C3 12.97 3 15.94 3 19 C2.01 19 1.02 19 0 19 C0 12.73 0 6.46 0 0 Z " fill="#3897CE" transform="translate(191,95)"/>
<path d="M0 0 C2.74019539 1.64411723 3.66509391 2.8028357 4.5234375 5.87109375 C5.23695477 10.06498971 5.21814965 13.2291456 3 17 C-0.70111454 19.4674097 -3.70820405 19.77653117 -8 19 C-11 17.125 -11 17.125 -13 14 C-13.83905521 9.40375954 -13.82769935 5.51145099 -11.5625 1.375 C-7.71781642 -0.68800094 -4.26379005 -0.75243354 0 0 Z M-8.375 3.5 C-10.55901466 6.86002255 -10.42935896 9.0642095 -10 13 C-9.01 14.485 -9.01 14.485 -8 16 C-4.5 16.41666667 -4.5 16.41666667 -1 16 C1.19666303 14.22033317 1.19666303 14.22033317 1.23046875 11.90625 C1.21628906 11.1121875 1.20210937 10.318125 1.1875 9.5 C1.18105469 8.7059375 1.17460937 7.911875 1.16796875 7.09375 C1.12675836 4.94163609 1.12675836 4.94163609 0 3 C-3.5388467 1.89902547 -5.17894805 1.48144088 -8.375 3.5 Z " fill="#3695CC" transform="translate(182,95)"/>
<path d="M0 0 C0.7940625 -0.01417969 1.588125 -0.02835937 2.40625 -0.04296875 C4.5 0.1875 4.5 0.1875 6.5 2.1875 C6.5 3.5075 6.5 4.8275 6.5 6.1875 C5.51 6.1875 4.52 6.1875 3.5 6.1875 C3.5 5.1975 3.5 4.2075 3.5 3.1875 C1.19 3.1875 -1.12 3.1875 -3.5 3.1875 C-3.17 4.1775 -2.84 5.1675 -2.5 6.1875 C-0.68731595 6.88001207 -0.68731595 6.88001207 1.4375 7.1875 C3.58984375 7.5625 3.58984375 7.5625 5.5 8.1875 C7.65502531 11.42003796 7.96856135 12.43900923 7.5 16.1875 C6.2734375 17.83203125 6.2734375 17.83203125 4.5 19.1875 C2.23828125 19.48046875 2.23828125 19.48046875 -0.1875 19.375 C-0.99574219 19.34792969 -1.80398438 19.32085937 -2.63671875 19.29296875 C-3.25160156 19.25816406 -3.86648438 19.22335938 -4.5 19.1875 C-4.5 18.5275 -4.5 17.8675 -4.5 17.1875 C-5.49 16.8575 -6.48 16.5275 -7.5 16.1875 C-7.5 14.8675 -7.5 13.5475 -7.5 12.1875 C-6.51 12.1875 -5.52 12.1875 -4.5 12.1875 C-4.17 13.5075 -3.84 14.8275 -3.5 16.1875 C-1.19 16.1875 1.12 16.1875 3.5 16.1875 C3.5 14.8675 3.5 13.5475 3.5 12.1875 C2.94570313 11.98253906 2.39140625 11.77757813 1.8203125 11.56640625 C1.09585937 11.29699219 0.37140625 11.02757813 -0.375 10.75 C-1.09429687 10.48316406 -1.81359375 10.21632813 -2.5546875 9.94140625 C-4.5 9.1875 -4.5 9.1875 -6.5 8.1875 C-6.5 5.8775 -6.5 3.5675 -6.5 1.1875 C-4.14653604 0.01076802 -2.6193967 0.02126134 0 0 Z " fill="#3594CC" transform="translate(357.5,94.8125)"/>
<path d="M0 0 C0.33 0.66 0.66 1.32 1 2 C1.66 2.66 2.32 3.32 3 4 C2.195625 4.61875 1.39125 5.2375 0.5625 5.875 C-2.03874519 7.74164041 -2.03874519 7.74164041 -3 10 C-3.66 10 -4.32 10 -5 10 C-5.99 13.3 -6.98 16.6 -8 20 C-8.33 20 -8.66 20 -9 20 C-9.12375 21.258125 -9.2475 22.51625 -9.375 23.8125 C-9.69868059 27.10325263 -10.06604999 28.09907498 -12 31 C-12.66 31.33 -13.32 31.66 -14 32 C-16.08069606 25.75791181 -15.83642001 19.15078751 -13.1875 13.125 C-12.47865351 11.73941504 -11.75163205 10.36284933 -11 9 C-10.319375 7.6078125 -10.319375 7.6078125 -9.625 6.1875 C-7.29484845 3.05075754 -4.08105305 0 0 0 Z M-5.625 5.375 C-8.22363777 7.65718683 -8.22363777 7.65718683 -8 10 C-7.34 10 -6.68 10 -6 10 C-4.64287834 8.44144019 -4.64287834 8.44144019 -3.375 6.5 C-2.92898437 5.8503125 -2.48296875 5.200625 -2.0234375 4.53125 C-1.68570313 4.0259375 -1.34796875 3.520625 -1 3 C-3.34281317 2.77636223 -3.34281317 2.77636223 -5.625 5.375 Z M-9 10 C-10.12516085 11.83284443 -10.12516085 11.83284443 -11 14 C-10.67 14.99 -10.34 15.98 -10 17 C-8.87483915 15.16715557 -8.87483915 15.16715557 -8 13 C-8.33 12.01 -8.66 11.02 -9 10 Z " fill="#3392CB" transform="translate(48,36)"/>
<path d="M0 0 C4.73751475 1.18437869 5.15741989 2.12377253 7.75 6.0625 C8.36359375 6.98160156 8.9771875 7.90070313 9.609375 8.84765625 C10.06828125 9.55792969 10.5271875 10.26820312 11 11 C11.33 7.37 11.66 3.74 12 0 C12.66 0 13.32 0 14 0 C14 6.27 14 12.54 14 19 C8.58617096 16.29308548 7.1966793 13.08562616 4 8 C3.67 11.63 3.34 15.26 3 19 C2.01 19 1.02 19 0 19 C0 12.73 0 6.46 0 0 Z " fill="#2189C7" transform="translate(266,95)"/>
<path d="M0 0 C3.46634296 1.65726616 4.14614643 4.98247082 5.390625 8.3984375 C5.65875 9.08421875 5.926875 9.77 6.203125 10.4765625 C7.3384155 13.45380391 8.140625 15.81314942 8.140625 19.0234375 C7.150625 19.0234375 6.160625 19.0234375 5.140625 19.0234375 C4.480625 17.3734375 3.820625 15.7234375 3.140625 14.0234375 C0.830625 14.0234375 -1.479375 14.0234375 -3.859375 14.0234375 C-4.519375 15.6734375 -5.179375 17.3234375 -5.859375 19.0234375 C-7.179375 19.0234375 -8.499375 19.0234375 -9.859375 19.0234375 C-3.9384751 0.04964464 -3.9384751 0.04964464 0 0 Z M-0.859375 5.0234375 C-1.519375 6.6734375 -2.179375 8.3234375 -2.859375 10.0234375 C-1.209375 10.0234375 0.440625 10.0234375 2.140625 10.0234375 C1.480625 8.3734375 0.820625 6.7234375 0.140625 5.0234375 C-0.189375 5.0234375 -0.519375 5.0234375 -0.859375 5.0234375 Z " fill="#278DC8" transform="translate(217.859375,94.9765625)"/>
<path d="M0 0 C2.25 0.1875 2.25 0.1875 5 1 C6.34423339 2.65788785 7.67618483 4.32576317 9 6 C10.72522704 7.02235677 12.45288591 8.0423329 14.21484375 9 C20.8340928 12.7079382 24.09209993 17.82537198 28.0703125 24.16015625 C29.85164997 26.7816792 31.68244222 28.85239645 34 31 C33.67 31.66 33.34 32.32 33 33 C28.14484957 31.62605986 26.58803245 29.41914177 24 25.1875 C19.54717775 17.96064131 14.29145682 11.76381894 6 9 C3.4931222 6.18925822 1.53009089 3.44270451 0 0 Z " fill="#3D98CE" transform="translate(5,80)"/>
<path d="M0 0 C4.14416097 2.07208048 7.7296906 4.7296906 11 8 C11.9375 11.75 11.9375 11.75 12 15 C11 16 11 16 8.1875 16.375 C5 16 5 16 2.8125 13.8125 C2.214375 12.884375 1.61625 11.95625 1 11 C0.4225 10.175 -0.155 9.35 -0.75 8.5 C-2.12456031 5.75087938 -2.25977183 4.03067139 -2 1 C-1.34 0.67 -0.68 0.34 0 0 Z " fill="#1784C4" transform="translate(330,58)"/>
<path d="M0 0 C0.99 0 1.98 0 3 0 C3.33 5.28 3.66 10.56 4 16 C6.31 16 8.62 16 11 16 C11.33 10.72 11.66 5.44 12 0 C12.99 0 13.98 0 15 0 C15.02699725 2.27076842 15.04639453 4.54162821 15.0625 6.8125 C15.07410156 8.07707031 15.08570313 9.34164062 15.09765625 10.64453125 C15 14 15 14 14 17 C13.34 17 12.68 17 12 17 C12 17.66 12 18.32 12 19 C10.56416999 19.10836453 9.1259798 19.18576167 7.6875 19.25 C6.48673828 19.31960937 6.48673828 19.31960937 5.26171875 19.390625 C3 19 3 19 1.21875 17.46875 C-0.45746603 14.07333805 -0.32363479 10.94309246 -0.1875 7.25 C-0.17396484 6.55261719 -0.16042969 5.85523437 -0.14648438 5.13671875 C-0.1112945 3.42414459 -0.05749155 1.71197059 0 0 Z " fill="#238AC7" transform="translate(246,95)"/>
<path d="M0 0 C1.828125 0.12109375 1.828125 0.12109375 4 1 C5.484375 3.72265625 5.484375 3.72265625 6.75 7.0625 C7.17796875 8.16722656 7.6059375 9.27195312 8.046875 10.41015625 C8.36140625 11.26480469 8.6759375 12.11945313 9 13 C10.32 9.04 11.64 5.08 13 1 C14.65 0.67 16.3 0.34 18 0 C15.69 6.27 13.38 12.54 11 19 C9.68 19 8.36 19 7 19 C5.82905995 16.2100561 4.66309073 13.41821403 3.5 10.625 C2.99919922 9.43390625 2.99919922 9.43390625 2.48828125 8.21875 C2.17246094 7.45820312 1.85664063 6.69765625 1.53125 5.9140625 C1.23798828 5.2123291 0.94472656 4.5105957 0.64257812 3.78759766 C0 2 0 2 0 0 Z " fill="#3995CC" transform="translate(292,95)"/>
<path d="M0 0 C4.41867808 0.9351322 8.91934507 1.19219034 13.41796875 1.51171875 C13.08796875 2.17171875 12.75796875 2.83171875 12.41796875 3.51171875 C9.64707045 3.53867884 6.87643425 3.55853827 4.10546875 3.57421875 C2.92694336 3.58678711 2.92694336 3.58678711 1.72460938 3.59960938 C0.96728516 3.60283203 0.20996094 3.60605469 -0.5703125 3.609375 C-1.61505737 3.61723022 -1.61505737 3.61723022 -2.6809082 3.62524414 C-4.58203125 3.51171875 -4.58203125 3.51171875 -7.58203125 2.51171875 C-13.67577572 2.26751869 -13.67577572 2.26751869 -19.58203125 3.51171875 C-20.28140657 4.82818994 -20.94932258 6.16194026 -21.58203125 7.51171875 C-23.70703125 8.26171875 -23.70703125 8.26171875 -25.58203125 8.51171875 C-24.76953125 6.07421875 -24.76953125 6.07421875 -23.58203125 3.51171875 C-22.59203125 3.18171875 -21.60203125 2.85171875 -20.58203125 2.51171875 C-20.58203125 1.85171875 -20.58203125 1.19171875 -20.58203125 0.51171875 C-13.88861699 -2.94294668 -7.01760178 -1.75129531 0 0 Z " fill="#2C8FC9" transform="translate(52.58203125,1.48828125)"/>
<path d="M0 0 C1.65 0 3.3 0 5 0 C5.33 1.32 5.66 2.64 6 4 C6.66 4 7.32 4 8 4 C9.625 5.5 9.625 5.5 11 7 C11.12375 6.401875 11.2475 5.80375 11.375 5.1875 C12 3 12 3 14 0 C15.32 0.33 16.64 0.66 18 1 C17.57847656 1.54527344 17.15695312 2.09054688 16.72265625 2.65234375 C12.66176571 8.24204014 11.21929625 12.09216823 11 19 C10.01 19 9.02 19 8 19 C8 16.03 8 13.06 8 10 C7.34 10 6.68 10 6 10 C2 3.25 2 3.25 2 1 C1.34 0.67 0.68 0.34 0 0 Z " fill="#278CC8" transform="translate(392,95)"/>
<path d="M0 0 C7.75 0.875 7.75 0.875 10 2 C10.8125 4.875 10.8125 4.875 11 8 C9.875 9.9375 9.875 9.9375 8 11 C5.32520673 10.73904456 3.39904859 10.1995243 1 9 C-0.72946672 6.45131221 -1.0473774 5.34743429 -0.625 2.25 C-0.41875 1.5075 -0.2125 0.765 0 0 Z " fill="#1F88C6" transform="translate(228,28)"/>
<path d="M0 0 C6.68443288 2.02558572 11.33581509 6.43694524 14.8125 12.375 C18.63679966 19.93524916 19.84905236 26.60470582 18 35 C17.34 35.99 16.68 36.98 16 38 C14.79638864 34.38916591 15.04641184 31.61425381 15.1875 27.8125 C15.29064281 21.59795992 14.70898928 17.07864872 11 12 C10.236875 10.9275 9.47375 9.855 8.6875 8.75 C5.62586084 5.61715992 2.88152748 3.97881793 -1 2 C-0.67 1.34 -0.34 0.68 0 0 Z " fill="#5EA9D6" transform="translate(72,32)"/>
<path d="M0 0 C2.625 0.25 2.625 0.25 4.5 1.4375 C5.625 3.25 5.625 3.25 5.625 5.625 C4.625 8.25 4.625 8.25 2.0625 10.4375 C-1.1489527 14.14302235 -0.79284444 16.50075878 -0.55078125 21.23828125 C-0.49277344 21.90214844 -0.43476563 22.56601563 -0.375 23.25 C-1.035 23.58 -1.695 23.91 -2.375 24.25 C-2.519375 23.156875 -2.66375 22.06375 -2.8125 20.9375 C-3.25788104 17.31877013 -3.25788104 17.31877013 -4.375 14.25 C-4.045 13.156875 -3.715 12.06375 -3.375 10.9375 C-2.34247328 7.13005771 -2.56347997 5.03709349 -3.375 1.25 C-2.375 0.25 -2.375 0.25 0 0 Z " fill="#2A8EC9" transform="translate(233.375,42.75)"/>
<path d="M0 0 C3.0625 0.25 3.0625 0.25 6.0625 2.25 C6.25 5.375 6.25 5.375 6.0625 8.25 C0.78680669 11.36745514 0.78680669 11.36745514 -2.25 10.875 C-4.90501382 8.31832002 -4.8100042 5.81988246 -4.9375 2.25 C-2.9375 0.25 -2.9375 0.25 0 0 Z " fill="#2089C7" transform="translate(156.9375,11.75)"/>
<path d="M0 0 C4.95 0 9.9 0 15 0 C15 0.99 15 1.98 15 3 C13.02 3 11.04 3 9 3 C9 8.28 9 13.56 9 19 C8.01 19 7.02 19 6 19 C6 13.72 6 8.44 6 3 C4.02 3 2.04 3 0 3 C0 2.01 0 1.02 0 0 Z " fill="#1D87C6" transform="translate(376,95)"/>
<path d="M0 0 C0.061875 0.61875 0.12375 1.2375 0.1875 1.875 C0.828919 4.27761141 0.828919 4.27761141 3.5625 5.25 C4.366875 5.4975 5.17125 5.745 6 6 C6 6.66 6 7.32 6 8 C6.598125 8.2475 7.19625 8.495 7.8125 8.75 C10.28647521 10.16370012 11.43370255 11.65055383 13 14 C8.68607774 13.5206753 6.83430453 12.2542015 4 9 C3.67 9.99 3.34 10.98 3 12 C2.34 11.01 1.68 10.02 1 9 C1.309375 9.928125 1.61875 10.85625 1.9375 11.8125 C2.625 13.875 3.3125 15.9375 4 18 C0 18 0 18 -1.484375 16.6875 C-2.65625 15.125 -3.828125 13.5625 -5 12 C-4.01 11.67 -3.02 11.34 -2 11 C-1.93941406 10.37351562 -1.87882812 9.74703125 -1.81640625 9.1015625 C-1.73261719 8.28429688 -1.64882813 7.46703125 -1.5625 6.625 C-1.48128906 5.81289063 -1.40007813 5.00078125 -1.31640625 4.1640625 C-1 2 -1 2 0 0 Z M-1 12 C0 14 0 14 0 14 Z " fill="#62ABD7" transform="translate(23,28)"/>
<path d="M0 0 C0.66 0.33 1.32 0.66 2 1 C1.29875 1.639375 0.5975 2.27875 -0.125 2.9375 C-2.40988156 5.20954515 -4.13248999 7.60505165 -5.875 10.3125 C-13.16027228 21.58013614 -13.16027228 21.58013614 -18 24 C-18.36625971 19.48279689 -18.36625971 19.48279689 -16.625 17.1875 C-15 16 -15 16 -13 16 C-12.67 14.68 -12.34 13.36 -12 12 C-11.34 12 -10.68 12 -10 12 C-9.9071875 10.9171875 -9.9071875 10.9171875 -9.8125 9.8125 C-8.53933033 5.40537421 -5.62542831 3.02169779 -1.8125 0.625 C-1.214375 0.41875 -0.61625 0.2125 0 0 Z " fill="#3795CC" transform="translate(39,5)"/>
<path d="M0 0 C0.66 0.66 1.32 1.32 2 2 C0.35 2.33 -1.3 2.66 -3 3 C-3.33 4.32 -3.66 5.64 -4 7 C-4.66 7 -5.32 7 -6 7 C-6.66 8.98 -7.32 10.96 -8 13 C-8.66 12.34 -9.32 11.68 -10 11 C-10.99 12.485 -10.99 12.485 -12 14 C-12 12.68 -12 11.36 -12 10 C-13.32 9.67 -14.64 9.34 -16 9 C-16 8.01 -16 7.02 -16 6 C-10.69348581 3.15722454 -5.95446557 1.02663199 0 0 Z " fill="#278CC8" transform="translate(401,45)"/>
<path d="M0 0 C0.99 0.33 1.98 0.66 3 1 C5.39254576 1.22560676 7.78928123 1.40848595 10.1875 1.5625 C12.09595703 1.68818359 12.09595703 1.68818359 14.04296875 1.81640625 C15.01878906 1.87699219 15.99460937 1.93757813 17 2 C17 2.99 17 3.98 17 5 C12.71 5 8.42 5 4 5 C4 6.65 4 8.3 4 10 C4.66 10 5.32 10 6 10 C6 10.99 6 11.98 6 13 C4.68 13 3.36 13 2 13 C-0.28571429 4.57142857 -0.28571429 4.57142857 0 0 Z " fill="#2A8EC9" transform="translate(45,54)"/>
<path d="M0 0 C1.32 0 2.64 0 4 0 C4 6.27 4 12.54 4 19 C2.68 19 1.36 19 0 19 C0 12.73 0 6.46 0 0 Z " fill="#6AB4DA" transform="translate(369,95)"/>
<path d="M0 0 C0.33 0 0.66 0 1 0 C1 2.31 1 4.62 1 7 C1.66 7 2.32 7 3 7 C6.25968109 16.41002278 6.25968109 16.41002278 7 21 C7.66 21 8.32 21 9 21 C10.70680947 22.62553283 12.37660195 24.29115995 14 26 C13.67 26.99 13.34 27.98 13 29 C8.22910755 27.40970252 5.38430062 23.50340955 2.98046875 19.15625 C0.10596043 12.69922637 -0.13604645 6.93836906 0 0 Z " fill="#4DA0D2" transform="translate(29,55)"/>
<path d="M0 0 C0.66 0 1.32 0 2 0 C2 1.32 2 2.64 2 4 C2.99 4 3.98 4 5 4 C5.12375 4.639375 5.2475 5.27875 5.375 5.9375 C5.684375 6.9584375 5.684375 6.9584375 6 8 C6.66 8.33 7.32 8.66 8 9 C8 9.66 8 10.32 8 11 C7.34 11 6.68 11 6 11 C6 12.98 6 14.96 6 17 C5.01 17 4.02 17 3 17 C2.67 16.34 2.34 15.68 2 15 C1.01 14.34 0.02 13.68 -1 13 C-1 12.34 -1 11.68 -1 11 C-0.34 11 0.32 11 1 11 C1 10.34 1 9.68 1 9 C0.34 8.67 -0.32 8.34 -1 8 C-0.67 5.36 -0.34 2.72 0 0 Z " fill="#5DA8D6" transform="translate(46,12)"/>
<path d="M0 0 C9.1268659 -0.78982493 17.29969595 1.5820495 26 4 C26 4.99 26 5.98 26 7 C21.68278665 7.20080062 18.95808571 6.60208231 15 5 C12.33597622 4.54686698 9.69122279 4.27368367 7 4 C7 3.01 7 2.02 7 1 C4.69 1 2.38 1 0 1 C0 0.67 0 0.34 0 0 Z " fill="#4A9ED1" transform="translate(55,113)"/>
<path d="M0 0 C0.99 0.33 1.98 0.66 3 1 C0.75168667 4.05770613 -1.55241483 6.51693186 -4.5 8.875 C-8.08945148 11.83919219 -9.92735074 14.85470149 -12 19 C-12.99 18.67 -13.98 18.34 -15 18 C-14.34 16.02 -13.68 14.04 -13 12 C-12.34 12 -11.68 12 -11 12 C-10.76539062 11.42765625 -10.53078125 10.8553125 -10.2890625 10.265625 C-8.70593415 7.48315699 -6.8008475 5.82929786 -4.375 3.75 C-3.55773437 3.04359375 -2.74046875 2.3371875 -1.8984375 1.609375 C-1.27195312 1.07828125 -0.64546875 0.5471875 0 0 Z " fill="#3B97CD" transform="translate(102,87)"/>
<path d="M0 0 C2 2 2 2 2.25 5.5625 C2.05063506 12.89912994 0.0918768 19.39462684 -3 26 C-3.33 26 -3.66 26 -4 26 C-4.21586845 20.06361776 -3.71249434 14.71248111 -2 9 C-1.67 8.67 -1.34 8.34 -1 8 C-0.76924918 6.65252916 -0.58846937 5.29622435 -0.4375 3.9375 C-0.2209375 1.9884375 -0.2209375 1.9884375 0 0 Z " fill="#288DC8" transform="translate(4,56)"/>
<path d="M0 0 C0.99 0 1.98 0 3 0 C2.67 1.65 2.34 3.3 2 5 C2.66 5.33 3.32 5.66 4 6 C4 6.99 4 7.98 4 9 C2.35 9 0.7 9 -1 9 C-1.33 10.32 -1.66 11.64 -2 13 C-3.98 13.33 -5.96 13.66 -8 14 C-8 13.34 -8 12.68 -8 12 C-6.68 12 -5.36 12 -4 12 C-4.66 10.35 -5.32 8.7 -6 7 C-5.38125 6.95875 -4.7625 6.9175 -4.125 6.875 C-3.42375 6.58625 -2.7225 6.2975 -2 6 C-0.6954344 3.00384054 -0.6954344 3.00384054 0 0 Z " fill="#4FA2D2" transform="translate(75,14)"/>
<path d="M0 0 C0.66 0.66 1.32 1.32 2 2 C1.59007812 2.49886719 1.18015625 2.99773438 0.7578125 3.51171875 C-4.12424853 10.01724027 -5.28164158 15.98658792 -6 24 C-6.66 24 -7.32 24 -8 24 C-8.83987687 14.94799374 -7.57279186 9.24751688 -2 2 C-1.34 1.34 -0.68 0.68 0 0 Z " fill="#2E90CA" transform="translate(38,38)"/>
<path d="M0 0 C0.99 0 1.98 0 3 0 C3 6.27 3 12.54 3 19 C2.01 19 1.02 19 0 19 C0 12.73 0 6.46 0 0 Z " fill="#0E7FC2" transform="translate(286,95)"/>
<path d="M0 0 C0.99 0 1.98 0 3 0 C3 6.27 3 12.54 3 19 C2.01 19 1.02 19 0 19 C0 12.73 0 6.46 0 0 Z " fill="#3292CB" transform="translate(229,95)"/>
<path d="M0 0 C0.33 0 0.66 0 1 0 C1.50643553 2.22771342 2.0048962 4.45724076 2.5 6.6875 C2.7784375 7.92886719 3.056875 9.17023437 3.34375 10.44921875 C3.89354126 13.42398218 4.13795705 15.99368602 4 19 C3.67 19 3.34 19 3 19 C2.67 20.98 2.34 22.96 2 25 C1.67 25 1.34 25 1 25 C0.86722656 23.98679687 0.73445312 22.97359375 0.59765625 21.9296875 C0.41932416 20.57811796 0.24093575 19.22655586 0.0625 17.875 C-0.02451172 17.20984375 -0.11152344 16.5446875 -0.20117188 15.859375 C-0.60953563 12.77395993 -1.05305137 9.71617516 -1.625 6.65625 C-2.04731812 3.66482997 -1.62815584 2.49012069 0 0 Z " fill="#439BCF" transform="translate(2,39)"/>
<path d="M0 0 C1.65 0.33 3.3 0.66 5 1 C5 1.66 5 2.32 5 3 C5.99 3.33 6.98 3.66 8 4 C7.01 4.61875 6.02 5.2375 5 5.875 C4.01 6.57625 3.02 7.2775 2 8 C2 8.66 2 9.32 2 10 C-0.99332739 9.0022242 -1.94766315 8.2477975 -4 6 C-2.89131683 3.78263366 -1.50559539 1.96382007 0 0 Z " fill="#2B8EC9" transform="translate(99,33)"/>
<path d="M0 0 C3.3 0 6.6 0 10 0 C10.33 1.65 10.66 3.3 11 5 C8.35261084 6.4606285 7.10551666 7 4 7 C4 6.01 4 5.02 4 4 C2.68 3.67 1.36 3.34 0 3 C0 2.01 0 1.02 0 0 Z " fill="#55A4D3" transform="translate(51,61)"/>
<path d="M0 0 C0.33 0.99 0.66 1.98 1 3 C-0.36328125 5.04296875 -0.36328125 5.04296875 -2.3125 7.1875 C-2.94800781 7.90292969 -3.58351563 8.61835937 -4.23828125 9.35546875 C-6 11 -6 11 -8 11 C-8.33 11.99 -8.66 12.98 -9 14 C-9.66 14 -10.32 14 -11 14 C-10.49270927 9.56120611 -9.06272483 7.22827752 -6 4 C-4.04148656 2.60644236 -2.04872887 1.25717453 0 0 Z " fill="#4099CE" transform="translate(54,38)"/>
<path d="M0 0 C0 0.66 0 1.32 0 2 C1.32 2.33 2.64 2.66 4 3 C-5.15197174 5.55403863 -13.51160514 6.38408795 -23 6 C-23 5.67 -23 5.34 -23 5 C-17.06 4.505 -17.06 4.505 -11 4 C-11 3.34 -11 2.68 -11 2 C-9.5422647 1.664061 -8.08378894 1.33133376 -6.625 1 C-5.81289062 0.814375 -5.00078125 0.62875 -4.1640625 0.4375 C-2 -0 -2 -0 0 0 Z " fill="#499ED0" transform="translate(76,0)"/>
<path d="M0 0 C0.66 0.33 1.32 0.66 2 1 C0.625 3.5 0.625 3.5 -1 6 C-1.66 6 -2.32 6 -3 6 C-3.99 9.96 -4.98 13.92 -6 18 C-8 16 -8 16 -8.1171875 14.01171875 C-7.58097514 8.86580982 -6.85697568 5.74353522 -3 2 C-2.01 1.34 -1.02 0.68 0 0 Z " fill="#248BC7" transform="translate(8,27)"/>
<path d="M0 0 C2.0625 0.4375 2.0625 0.4375 4 1 C3.21232408 2.93912584 2.4197133 4.87624766 1.625 6.8125 C1.18414062 7.89144531 0.74328125 8.97039062 0.2890625 10.08203125 C-1 13 -1 13 -3 16 C-3.99 16 -4.98 16 -6 16 C-5.731875 15.38125 -5.46375 14.7625 -5.1875 14.125 C-3.81131955 10.50347251 -2.74671528 6.83305457 -1.68359375 3.109375 C-1 1 -1 1 0 0 Z " fill="#489ED1" transform="translate(306,95)"/>
<path d="M0 0 C1.32 0.33 2.64 0.66 4 1 C4.33 2.65 4.66 4.3 5 6 C3.68 6 2.36 6 1 6 C0.67 6.99 0.34 7.98 0 9 C1.32 9.66 2.64 10.32 4 11 C2.02 11 0.04 11 -2 11 C-2.94693195 7.2983569 -3.30443767 5.60887535 -1.5625 2.125 C-1.046875 1.42375 -0.53125 0.7225 0 0 Z " fill="#2C8FC9" transform="translate(216,95)"/>
<path d="M0 0 C0.99 0.33 1.98 0.66 3 1 C3 1.99 3 2.98 3 4 C4.32 4 5.64 4 7 4 C7.99 5.98 8.98 7.96 10 10 C6.25 11.125 6.25 11.125 4 10 C3.525625 9.195625 3.05125 8.39125 2.5625 7.5625 C1.10335955 4.7644028 1.10335955 4.7644028 -2 3 C-2 2.34 -2 1.68 -2 1 C-1.34 0.67 -0.68 0.34 0 0 Z " fill="#3A96CD" transform="translate(51,67)"/>
<path d="M0 0 C0.66 0 1.32 0 2 0 C3.29004296 2.58008592 3.20410224 4.55741574 3.25 7.4375 C3.27578125 8.40558594 3.3015625 9.37367187 3.328125 10.37109375 C3 13 3 13 1.484375 14.84765625 C0.74960938 15.41806641 0.74960938 15.41806641 0 16 C-1.08489672 12.74530985 -1.13323992 10.29456791 -1.125 6.875 C-1.12757812 5.79992188 -1.13015625 4.72484375 -1.1328125 3.6171875 C-1 1 -1 1 0 0 Z " fill="#3091CA" transform="translate(111,35)"/>
<path d="M0 0 C-0.33 0.99 -0.66 1.98 -1 3 C-1.9590625 3.2165625 -1.9590625 3.2165625 -2.9375 3.4375 C-5.14499254 3.778712 -5.14499254 3.778712 -5.99609375 5.73828125 C-6.32738281 6.48464844 -6.65867187 7.23101562 -7 8 C-7.35320313 8.77859375 -7.70640625 9.5571875 -8.0703125 10.359375 C-8.41835938 11.14828125 -8.76640625 11.9371875 -9.125 12.75 C-9.47820313 13.54921875 -9.83140625 14.3484375 -10.1953125 15.171875 C-10.46085937 15.77515625 -10.72640625 16.3784375 -11 17 C-11.66 16.01 -12.32 15.02 -13 14 C-12.3125 11.625 -12.3125 11.625 -11 9 C-10.5875 8.154375 -10.175 7.30875 -9.75 6.4375 C-7.41549847 3.18587286 -4.20915713 0 0 0 Z " fill="#51A2D2" transform="translate(48,36)"/>
<path d="M0 0 C0.33 0 0.66 0 1 0 C1.06058594 0.61488281 1.12117187 1.22976562 1.18359375 1.86328125 C1.26738281 2.67152344 1.35117188 3.47976562 1.4375 4.3125 C1.51871094 5.11300781 1.59992188 5.91351563 1.68359375 6.73828125 C1.95265693 9.16087179 1.95265693 9.16087179 3 12 C3.66 12 4.32 12 5 12 C5 12.66 5 13.32 5 14 C2.625 13.6875 2.625 13.6875 0 13 C-2.71232939 8.93150591 -2.30699887 6.83523216 -2 2 C-1.34 1.34 -0.68 0.68 0 0 Z " fill="#1A86C5" transform="translate(171,99)"/>
<path d="M0 0 C0.99 0 1.98 0 3 0 C3 4.62 3 9.24 3 14 C2.01 14.33 1.02 14.66 0 15 C0 10.05 0 5.1 0 0 Z " fill="#3F99CE" transform="translate(246,95)"/>
<path d="M0 0 C0.66 0 1.32 0 2 0 C1.29545067 5.98866929 -1.71206337 10.07729417 -6.25 13.875 C-7.61125 14.926875 -7.61125 14.926875 -9 16 C-9.66 15.34 -10.32 14.68 -11 14 C-10.34 14 -9.68 14 -9 14 C-9 13.34 -9 12.68 -9 12 C-8.2575 11.46375 -7.515 10.9275 -6.75 10.375 C-3.2704912 7.36996967 -1.80681215 4.15869612 0 0 Z " fill="#429BCE" transform="translate(86,69)"/>
<path d="M0 0 C0.66 0.66 1.32 1.32 2 2 C1.01 3.175625 1.01 3.175625 0 4.375 C-2.20201441 6.71512812 -2.20201441 6.71512812 -2 9 C-7.75 12 -7.75 12 -10 12 C-9.875 9.6875 -9.875 9.6875 -9 7 C-7.03533587 5.93224776 -5.03144641 4.93446535 -3 4 C-1.14684743 1.95053601 -1.14684743 1.95053601 0 0 Z " fill="#4A9ED1" transform="translate(115,83)"/>
<path d="M0 0 C0.66 0 1.32 0 2 0 C1.01 5.61 0.02 11.22 -1 17 C-1.33 17 -1.66 17 -2 17 C-3.53626813 6.49524762 -3.53626813 6.49524762 -1 1 C-0.67 0.67 -0.34 0.34 0 0 Z " fill="#4CA0D2" transform="translate(111,50)"/>
<path d="M0 0 C0.99 0 1.98 0 3 0 C2.84595887 5.08335725 -0.02068432 7.35754718 -3.50390625 10.64453125 C-3.99761719 11.09183594 -4.49132812 11.53914063 -5 12 C-5.58203125 10.140625 -5.58203125 10.140625 -6 8 C-4.6875 5.75 -4.6875 5.75 -3 4 C-2.34 4 -1.68 4 -1 4 C-0.67 2.68 -0.34 1.36 0 0 Z " fill="#439BCF" transform="translate(27,17)"/>
<path d="M0 0 C5.29158974 1.40071493 7.77478044 4.85487245 11 9 C10.01 10.485 10.01 10.485 9 12 C8.731875 11.195625 8.46375 10.39125 8.1875 9.5625 C7.795625 8.716875 7.40375 7.87125 7 7 C6.01 6.67 5.02 6.34 4 6 C4 5.34 4 4.68 4 4 C1.525 3.01 1.525 3.01 -1 2 C-0.67 1.34 -0.34 0.68 0 0 Z " fill="#3F99CE" transform="translate(72,36)"/>
<path d="M0 0 C4.29 0 8.58 0 13 0 C13 0.99 13 1.98 13 3 C11.20841511 3.02696365 9.41671527 3.04637917 7.625 3.0625 C6.62726562 3.07410156 5.62953125 3.08570313 4.6015625 3.09765625 C2 3 2 3 0 2 C0 1.34 0 0.68 0 0 Z " fill="#2C8ECA" transform="translate(49,52)"/>
<path d="M0 0 C0.66 0.66 1.32 1.32 2 2 C1.195625 2.61875 0.39125 3.2375 -0.4375 3.875 C-3.03874519 5.74164041 -3.03874519 5.74164041 -4 8 C-4.66 8 -5.32 8 -6 8 C-6.66 9.98 -7.32 11.96 -8 14 C-8.66 13.01 -9.32 12.02 -10 11 C-9.67 10.01 -9.34 9.02 -9 8 C-8.34 8 -7.68 8 -7 8 C-6.773125 7.4225 -6.54625 6.845 -6.3125 6.25 C-4.66961977 3.4336339 -2.60466773 1.91922886 0 0 Z " fill="#52A2D2" transform="translate(49,38)"/>
<path d="M0 0 C1.95258928 3.23679222 2.17783445 5.33020739 1.75 9.0625 C1.61851563 10.34833984 1.61851563 10.34833984 1.484375 11.66015625 C1 14 1 14 -1 17 C-2.12798914 13.61603259 -1.94272259 11.47109037 -1.625 7.9375 C-1.53476563 6.87402344 -1.44453125 5.81054688 -1.3515625 4.71484375 C-1 2 -1 2 0 0 Z " fill="#75B4DB" transform="translate(89,53)"/>
<path d="M0 0 C0.99 0 1.98 0 3 0 C3.33 0.66 3.66 1.32 4 2 C4.66 1.34 5.32 0.68 6 0 C6 2.64 6 5.28 6 8 C5.01 7.67 4.02 7.34 3 7 C2.67 6.34 2.34 5.68 2 5 C1.34 5.99 0.68 6.98 0 8 C0 5.36 0 2.72 0 0 Z " fill="#69AFD8" transform="translate(54,96)"/>
<path d="M0 0 C-0.33 0.33 -0.66 0.66 -1 1 C-0.34 1.66 0.32 2.32 1 3 C1 4.33333333 1 5.66666667 1 7 C-0.32 7.33 -1.64 7.66 -3 8 C-3.99 5.36 -4.98 2.72 -6 0 C-3.50907189 -1.24546405 -2.58919267 -0.7767578 0 0 Z " fill="#5FABD6" transform="translate(78,94)"/>
<path d="M0 0 C0.66 0.33 1.32 0.66 2 1 C1.67 1.66 1.34 2.32 1 3 C2.32 3.33 3.64 3.66 5 4 C4.01 5.485 4.01 5.485 3 7 C2.34 7 1.68 7 1 7 C1 7.66 1 8.32 1 9 C0.01 9 -0.98 9 -2 9 C-2 8.34 -2 7.68 -2 7 C-1.34 7 -0.68 7 0 7 C0 6.01 0 5.02 0 4 C-1.65 4.66 -3.3 5.32 -5 6 C-5 5.34 -5 4.68 -5 4 C-3.37373596 2.61767557 -1.7074998 1.28062485 0 0 Z " fill="#6FB3D9" transform="translate(29,83)"/>
<path d="M0 0 C0.66 0 1.32 0 2 0 C1.34108329 4.34885027 0.02800831 8.09420622 -2 12 C-4.1875 12.9375 -4.1875 12.9375 -6 13 C-4.58707905 8.1725201 -2.57025846 4.2837641 0 0 Z " fill="#3E98CE" transform="translate(261,39)"/>
<path d="M0 0 C1.65 0 3.3 0 5 0 C5.99 1.98 6.98 3.96 8 6 C6.68 5.67 5.36 5.34 4 5 C3.01 6.485 3.01 6.485 2 8 C0.4375 6.25 0.4375 6.25 -1 4 C-0.6875 1.75 -0.6875 1.75 0 0 Z M2 1 C1.34 1.66 0.68 2.32 0 3 C0.99 3 1.98 3 3 3 C2.67 2.34 2.34 1.68 2 1 Z " fill="#57A6D4" transform="translate(80,90)"/>
<path d="M0 0 C0 0.66 0 1.32 0 2 C-0.66 2 -1.32 2 -2 2 C-2 2.99 -2 3.98 -2 5 C-0.68 4.67 0.64 4.34 2 4 C2 4.66 2 5.32 2 6 C-2.625 8.125 -2.625 8.125 -6 7 C-5.01 6.67 -4.02 6.34 -3 6 C-3.66 5.34 -4.32 4.68 -5 4 C-5.99 4 -6.98 4 -8 4 C-8 3.34 -8 2.68 -8 2 C-2.25 0 -2.25 0 0 0 Z " fill="#6FB2DA" transform="translate(23,69)"/>
<path d="M0 0 C2.16874252 0.50603992 3.99967627 0.99983813 6 2 C6 3.65 6 5.3 6 7 C4.68 7.33 3.36 7.66 2 8 C1.67 7.34 1.34 6.68 1 6 C1.66 5.67 2.32 5.34 3 5 C1.68 5 0.36 5 -1 5 C-0.67 3.35 -0.34 1.7 0 0 Z M1 1 C0.67 1.66 0.34 2.32 0 3 C0.66 3 1.32 3 2 3 C1.67 2.34 1.34 1.68 1 1 Z " fill="#76B6DC" transform="translate(87,85)"/>
<path d="M0 0 C5.97031739 0.29123499 8.894534 3.02814384 13 7 C12.67 7.66 12.34 8.32 12 9 C11.01 9 10.02 9 9 9 C8.814375 8.21625 8.62875 7.4325 8.4375 6.625 C7.16038373 3.60623658 7.16038373 3.60623658 3.375 2.6875 C2.26125 2.460625 1.1475 2.23375 0 2 C0 1.34 0 0.68 0 0 Z " fill="#459CCF" transform="translate(66,39)"/>
<path d="M0 0 C3.375 -0.125 3.375 -0.125 7 0 C9 2 9 2 9 6 C8.01 6 7.02 6 6 6 C6 5.01 6 4.02 6 3 C3.69 2.67 1.38 2.34 -1 2 C-0.67 1.34 -0.34 0.68 0 0 Z " fill="#288CC9" transform="translate(355,95)"/>
<path d="M0 0 C0.78375 0.04125 1.5675 0.0825 2.375 0.125 C3 2.5 3 2.5 3.375 5.125 C1.375 7.125 1.375 7.125 -1.25 7.25 C-2.03375 7.20875 -2.8175 7.1675 -3.625 7.125 C-4.25 4.75 -4.25 4.75 -4.625 2.125 C-2.625 0.125 -2.625 0.125 0 0 Z M-3.625 3.125 C-3.295 4.115 -2.965 5.105 -2.625 6.125 C-1.305 5.795 0.015 5.465 1.375 5.125 C1.375 4.135 1.375 3.145 1.375 2.125 C-1.5504644 1.9013932 -1.5504644 1.9013932 -3.625 3.125 Z " fill="#5FAAD6" transform="translate(24.625,76.875)"/>
<path d="M0 0 C0.99 0 1.98 0 3 0 C3.33 1.32 3.66 2.64 4 4 C4.66 3.67 5.32 3.34 6 3 C6 4.65 6 6.3 6 8 C4.68 8 3.36 8 2 8 C0.74335022 5.09399739 0 3.20395416 0 0 Z " fill="#2089C6" transform="translate(297,106)"/>
<path d="M0 0 C-0.75 6.75 -0.75 6.75 -3 9 C-3 7.68 -3 6.36 -3 5 C-4.32 5.33 -5.64 5.66 -7 6 C-7.33 5.34 -7.66 4.68 -8 4 C-2.25 0 -2.25 0 0 0 Z " fill="#5AA8D5" transform="translate(38,89)"/>
<path d="M0 0 C-0.66 0.66 -1.32 1.32 -2 2 C-2.99 2 -3.98 2 -5 2 C-5 2.66 -5 3.32 -5 4 C-6.32 4.33 -7.64 4.66 -9 5 C-9 5.66 -9 6.32 -9 7 C-9.99 7 -10.98 7 -12 7 C-9.87654283 1.40179474 -5.8147806 -0.49840977 0 0 Z " fill="#3C98CE" transform="translate(51,32)"/>
<path d="M0 0 C4.29 0 8.58 0 13 0 C13.33 0.66 13.66 1.32 14 2 C9.05 2 4.1 2 -1 2 C-0.67 1.34 -0.34 0.68 0 0 Z " fill="#72B5DB" transform="translate(58,44)"/>
<path d="M0 0 C0 1.98 0 3.96 0 6 C-1.175625 6.4640625 -1.175625 6.4640625 -2.375 6.9375 C-4.92330128 7.92875038 -4.92330128 7.92875038 -7 9 C-5.99432671 5.98298013 -3.90847918 0 0 0 Z " fill="#3896CD" transform="translate(189,30)"/>
<path d="M0 0 C-0.1875 1.8125 -0.1875 1.8125 -1 4 C-3.375 5.8125 -3.375 5.8125 -6 7 C-6.99 6.67 -7.98 6.34 -9 6 C-8.34 5.01 -7.68 4.02 -7 3 C-6.01 3 -5.02 3 -4 3 C-4 2.34 -4 1.68 -4 1 C-2 0 -2 0 0 0 Z " fill="#298DC9" transform="translate(21,26)"/>
<path d="M0 0 C0.66 0.33 1.32 0.66 2 1 C1.67 2.65 1.34 4.3 1 6 C1.99 6 2.98 6 4 6 C4 4.35 4 2.7 4 1 C4.66 1 5.32 1 6 1 C5.34 3.31 4.68 5.62 4 8 C2.35 7.67 0.7 7.34 -1 7 C-0.67 4.69 -0.34 2.38 0 0 Z " fill="#64ACD6" transform="translate(47,95)"/>
<path d="M0 0 C3 1 3 1 4.6875 3.6875 C6.03558623 7.08981286 6.25833766 9.38327271 6 13 C4.43926745 10.65890118 3.13626133 8.43666597 1.875 5.9375 C1.34519531 4.89916016 1.34519531 4.89916016 0.8046875 3.83984375 C0 2 0 2 0 0 Z " fill="#4A9ED0" transform="translate(83,42)"/>
<path d="M0 0 C2.97 0 5.94 0 9 0 C9 0.99 9 1.98 9 3 C6.03 3 3.06 3 0 3 C0 2.01 0 1.02 0 0 Z " fill="#278CC8" transform="translate(71,111)"/>
<path d="M0 0 C0.61875 0.66 1.2375 1.32 1.875 2 C3.75637427 4.2284549 3.75637427 4.2284549 6 4 C6.33 4.99 6.66 5.98 7 7 C3 7 3 7 1.515625 5.6875 C0.34375 4.125 -0.828125 2.5625 -2 1 C-1.34 0.67 -0.68 0.34 0 0 Z " fill="#52A2D3" transform="translate(20,39)"/>
<path d="M0 0 C0.33 0.99 0.66 1.98 1 3 C-0.9375 5.6875 -0.9375 5.6875 -3 8 C-3.66 7.67 -4.32 7.34 -5 7 C-4.1875 4.0625 -4.1875 4.0625 -3 1 C-2.01 0.67 -1.02 0.34 0 0 Z " fill="#4EA1D2" transform="translate(92,98)"/>
<path d="M0 0 C1.17219543 0.78345715 2.33763668 1.57702836 3.5 2.375 C4.47453125 3.03628906 4.47453125 3.03628906 5.46875 3.7109375 C6.22671875 4.34902344 6.22671875 4.34902344 7 5 C7 5.66 7 6.32 7 7 C4.03 6.67 1.06 6.34 -2 6 C-1.67 5.34 -1.34 4.68 -1 4 C-0.34 4 0.32 4 1 4 C0.67 2.68 0.34 1.36 0 0 Z " fill="#88C0E0" transform="translate(97,69)"/>
<path d="M0 0 C4.875 1.75 4.875 1.75 6 4 C5.67 4.66 5.34 5.32 5 6 C2.5625 5.1875 2.5625 5.1875 0 4 C-0.33 3.01 -0.66 2.02 -1 1 C-0.67 0.67 -0.34 0.34 0 0 Z " fill="#4CA0D1" transform="translate(33,107)"/>
<path d="M0 0 C0.33 0 0.66 0 1 0 C1 2.64 1 5.28 1 8 C0.01 8 -0.98 8 -2 8 C-2.99 5.69 -3.98 3.38 -5 1 C-4.34 1 -3.68 1 -3 1 C-2.34 1.99 -1.68 2.98 -1 4 C-0.67 2.68 -0.34 1.36 0 0 Z " fill="#68AFD8" transform="translate(70,95)"/>
<path d="M0 0 C0.99 0.33 1.98 0.66 3 1 C2.34 2.32 1.68 3.64 1 5 C2.32 5.66 3.64 6.32 5 7 C3.02 7 1.04 7 -1 7 C-1.33 5.02 -1.66 3.04 -2 1 C-1.34 0.67 -0.68 0.34 0 0 Z " fill="#83BDDF" transform="translate(215,99)"/>
<path d="M0 0 C2.0625 0.4375 2.0625 0.4375 4 1 C3.67 2.32 3.34 3.64 3 5 C2.01 5 1.02 5 0 5 C-0.5625 3.0625 -0.5625 3.0625 -1 1 C-0.67 0.67 -0.34 0.34 0 0 Z " fill="#449BD0" transform="translate(64,61)"/>
<path d="M0 0 C0.33 0 0.66 0 1 0 C1 2.31 1 4.62 1 7 C1.66 7 2.32 7 3 7 C3 8.98 3 10.96 3 13 C2.01 13.495 2.01 13.495 1 14 C-0.20568053 9.32798795 -0.09382426 4.78503708 0 0 Z " fill="#54A4D4" transform="translate(29,55)"/>
<path d="M0 0 C0.66 0 1.32 0 2 0 C3.4783226 2.95664519 3.06032783 5.74229737 3 9 C2.01 8.67 1.02 8.34 0 8 C0 5.36 0 2.72 0 0 Z " fill="#6DB1DA" transform="translate(41,21)"/>
<path d="M0 0 C-0.99 1.485 -0.99 1.485 -2 3 C-4.625 3.1875 -4.625 3.1875 -7 3 C-7 2.01 -7 1.02 -7 0 C-3.86650268 -1.04449911 -3.01031744 -0.93423645 0 0 Z " fill="#499ED0" transform="translate(46,117)"/>
<path d="M0 0 C1.64826111 2.96687001 2.44271087 5.65626525 3 9 C2.01 9.495 2.01 9.495 1 10 C-0.83691257 6.21812119 -1.15837626 4.05431692 0 0 Z " fill="#419ACF" transform="translate(32,66)"/>
<path d="M0 0 C1.98 0 3.96 0 6 0 C6 0.99 6 1.98 6 3 C4.35 3.33 2.7 3.66 1 4 C0.67 2.68 0.34 1.36 0 0 Z " fill="#2E90C9" transform="translate(51,61)"/>
<path d="M0 0 C1.32 0.33 2.64 0.66 4 1 C2.1875 3.5 2.1875 3.5 0 6 C-0.99 6 -1.98 6 -3 6 C-2 4 -1 2 0 0 Z " fill="#459CD0" transform="translate(406,95)"/>
<path d="M0 0 C0.66 0.99 1.32 1.98 2 3 C0.625 6.6875 0.625 6.6875 -1 10 C-1.66 9.01 -2.32 8.02 -3 7 C-2.21069203 4.51064409 -1.1651105 2.330221 0 0 Z " fill="#6EB1DA" transform="translate(38,43)"/>
<path d="M0 0 C0.66 0 1.32 0 2 0 C2 1.32 2 2.64 2 4 C2.66 4.66 3.32 5.32 4 6 C2.35 6.66 0.7 7.32 -1 8 C-0.67 5.36 -0.34 2.72 0 0 Z " fill="#4A9ED1" transform="translate(46,12)"/>
<path d="M0 0 C0.33 0 0.66 0 1 0 C1.33 2.97 1.66 5.94 2 9 C1.01 9.33 0.02 9.66 -1 10 C-1.33 8.02 -1.66 6.04 -2 4 C-1.34 4 -0.68 4 0 4 C0 2.68 0 1.36 0 0 Z " fill="#4DA0D1" transform="translate(35,58)"/>
<path d="M0 0 C0.33 0 0.66 0 1 0 C1.33 3.63 1.66 7.26 2 11 C1.01 11.495 1.01 11.495 0 12 C-0.144375 10.906875 -0.28875 9.81375 -0.4375 8.6875 C-0.88288104 5.06877013 -0.88288104 5.06877013 -2 2 C-1.34 1.34 -0.68 0.68 0 0 Z " fill="#50A2D2" transform="translate(231,55)"/>
<path d="M0 0 C1.65 0 3.3 0 5 0 C5.33 0.99 5.66 1.98 6 3 C3.69 3 1.38 3 -1 3 C-0.67 2.01 -0.34 1.02 0 0 Z " fill="#2189C6" transform="translate(76,5)"/>
<path d="M0 0 C0.33 0.99 0.66 1.98 1 3 C-0.4375 5.1875 -0.4375 5.1875 -2 7 C-2.66 6.67 -3.32 6.34 -4 6 C-2.25 1.125 -2.25 1.125 0 0 Z " fill="#3D9ACF" transform="translate(94,103)"/>
<path d="M0 0 C2 1 2 1 3 3 C-0.625 6 -0.625 6 -4 6 C-2.84826645 3.53199953 -1.95216435 1.95216435 0 0 Z " fill="#499ED1" transform="translate(173,95)"/>
<path d="M0 0 C0.33 0.66 0.66 1.32 1 2 C1.99 1.67 2.98 1.34 4 1 C4.33 2.32 4.66 3.64 5 5 C2.69 4.67 0.38 4.34 -2 4 C-2 3.34 -2 2.68 -2 2 C-1.34 2 -0.68 2 0 2 C0 1.34 0 0.68 0 0 Z " fill="#88BFE0" transform="translate(53,82)"/>
<path d="M0 0 C0.66 0.33 1.32 0.66 2 1 C1.67 1.66 1.34 2.32 1 3 C3.475 3.99 3.475 3.99 6 5 C5.67 5.66 5.34 6.32 5 7 C4.01 6.34 3.02 5.68 2 5 C0.68 5 -0.64 5 -2 5 C-1.34 3.35 -0.68 1.7 0 0 Z " fill="#59A7D4" transform="translate(94,76)"/>
<path d="M0 0 C2.97 0 5.94 0 9 0 C9 0.66 9 1.32 9 2 C6.03 2 3.06 2 0 2 C0 1.34 0 0.68 0 0 Z " fill="#1080C2" transform="translate(70,62)"/>
<path d="M0 0 C-0.66 0 -1.32 0 -2 0 C-2.2475 0.639375 -2.495 1.27875 -2.75 1.9375 C-4 4 -4 4 -6.125 4.75 C-7.053125 4.87375 -7.053125 4.87375 -8 5 C-8 4.01 -8 3.02 -8 2 C-3.71900826 -1.23966942 -3.71900826 -1.23966942 0 0 Z " fill="#63ADD7" transform="translate(51,51)"/>
<path d="M0 0 C0.66 0.66 1.32 1.32 2 2 C1.195625 2.12375 0.39125 2.2475 -0.4375 2.375 C-1.7059375 2.684375 -1.7059375 2.684375 -3 3 C-3.33 3.66 -3.66 4.32 -4 5 C-4 4.34 -4 3.68 -4 3 C-5.32 2.67 -6.64 2.34 -8 2 C-6.71254964 1.61077082 -5.41980403 1.23901964 -4.125 0.875 C-3.04605469 0.56175781 -3.04605469 0.56175781 -1.9453125 0.2421875 C-1.30335938 0.16226563 -0.66140625 0.08234375 0 0 Z " fill="#65ADD8" transform="translate(401,45)"/>
<path d="M0 0 C1.32 0.33 2.64 0.66 4 1 C4 2.65 4 4.3 4 6 C3.01 6 2.02 6 1 6 C0.67 4.02 0.34 2.04 0 0 Z " fill="#3594CB" transform="translate(48,23)"/>
<path d="M0 0 C0.1875 2.375 0.1875 2.375 0 5 C-0.99 5.66 -1.98 6.32 -3 7 C-3.6875 5.1875 -3.6875 5.1875 -4 3 C-1.64285714 0 -1.64285714 0 0 0 Z " fill="#4B9ED1" transform="translate(346,98)"/>
<path d="M0 0 C0 0.66 0 1.32 0 2 C-2.90600261 3.25664978 -4.79604584 4 -8 4 C-8 3.34 -8 2.68 -8 2 C-2.25 0 -2.25 0 0 0 Z " fill="#80BBDE" transform="translate(23,69)"/>
<path d="M0 0 C0.99 0 1.98 0 3 0 C2.34 2.31 1.68 4.62 1 7 C0.01 6.67 -0.98 6.34 -2 6 C-2 5.34 -2 4.68 -2 4 C-1.34 4 -0.68 4 0 4 C0 2.68 0 1.36 0 0 Z " fill="#9BC9E4" transform="translate(47,19)"/>
<path d="M0 0 C0.66 0 1.32 0 2 0 C1.34 1.98 0.68 3.96 0 6 C-0.99 6 -1.98 6 -3 6 C-2.01 4.02 -1.02 2.04 0 0 Z " fill="#86BFDF" transform="translate(41,92)"/>
<path d="M0 0 C1.485 0.99 1.485 0.99 3 2 C3 2.99 3 3.98 3 5 C2.01 5 1.02 5 0 5 C-0.5625 3.0625 -0.5625 3.0625 -1 1 C-0.67 0.67 -0.34 0.34 0 0 Z " fill="#4FA1D2" transform="translate(76,25)"/>
<path d="M0 0 C0.66 0 1.32 0 2 0 C2 2.64 2 5.28 2 8 C0.23537317 4.91190305 0 3.76687864 0 0 Z " fill="#85BEDF" transform="translate(62,96)"/>
<path d="M0 0 C2.4375 0.8125 2.4375 0.8125 5 2 C5.33 2.99 5.66 3.98 6 5 C2.83884224 3.63016497 2.0072908 3.0109362 0 0 Z " fill="#5FA9D5" transform="translate(90,82)"/>
<path d="M0 0 C0.99 0.33 1.98 0.66 3 1 C3 1.66 3 2.32 3 3 C1.68 3 0.36 3 -1 3 C-0.67 2.01 -0.34 1.02 0 0 Z " fill="#6FB2DB" transform="translate(40,17)"/>
<path d="M0 0 C0.99 0 1.98 0 3 0 C3 0.99 3 1.98 3 3 C2.01 2.67 1.02 2.34 0 2 C0 1.34 0 0.68 0 0 Z " fill="#68AFD6" transform="translate(15,36)"/>
<path d="" fill="#CAE0F3" transform="translate(0,0)"/>
</svg>
